<svg width="689" height="317" viewBox="0 0 689 317" fill="none" xmlns="http://www.w3.org/2000/svg">
<g filter="url(#filter0_d_59_450)">
<mask id="path-1-outside-1_59_450" maskUnits="userSpaceOnUse" x="16" y="58" width="664" height="158" fill="black">
<rect fill="white" x="16" y="58" width="664" height="158"/>
<path d="M111.8 204L47 96.8H45.4L46 201L26 202L31.4 71L79.8 68L114.8 167.8H116.4L118.4 70L138.4 69L129.8 201L111.8 204ZM202.877 205.8C195.677 205.8 188.943 204.333 182.677 201.4C176.543 198.467 171.41 193.6 167.277 186.8C163.143 180 160.41 170.933 159.077 159.6L149.477 71L197.077 68C195.477 87.3333 194.143 103.133 193.077 115.4C192.01 127.667 191.21 137.333 190.677 144.4C190.143 151.333 189.743 156.4 189.477 159.6C189.21 162.667 189.01 164.667 188.877 165.6C188.877 166.533 188.877 167.133 188.877 167.4C188.877 175.667 190.81 181.533 194.677 185C198.677 188.467 204.01 190.2 210.677 190.2C214.41 190.2 218.077 189.467 221.677 188C225.41 186.533 228.477 183.8 230.877 179.8C233.41 175.8 234.743 170.133 234.877 162.8L236.677 70L256.677 69L250.677 163C250.143 171.933 248.343 179.267 245.277 185C242.21 190.6 238.343 194.933 233.677 198C229.01 200.933 224.01 202.933 218.677 204C213.343 205.2 208.077 205.8 202.877 205.8ZM343.534 204L300.134 105.4H298.934L295.734 201L275.734 202L285.134 71L333.534 69L353.734 164.2L377.134 68L425.534 71L431.534 201L413.534 204L384.934 97.6H383.334L361.534 201L343.534 204ZM461.625 202.8L452.225 71L540.425 68.2L539.825 81.6L497.625 86.6L492.425 128L535.025 127.6L536.025 145.6L490.825 142.2L485.425 186.8L540.625 180.4L539.825 201L461.625 202.8ZM642.519 204L577.719 96.8H576.119L576.719 201L556.719 202L562.119 71L610.519 68L645.519 167.8H647.119L649.119 70L669.119 69L660.519 201L642.519 204Z"/>
</mask>
<path d="M111.8 204L47 96.8H45.4L46 201L26 202L31.4 71L79.8 68L114.8 167.8H116.4L118.4 70L138.4 69L129.8 201L111.8 204ZM202.877 205.8C195.677 205.8 188.943 204.333 182.677 201.4C176.543 198.467 171.41 193.6 167.277 186.8C163.143 180 160.41 170.933 159.077 159.6L149.477 71L197.077 68C195.477 87.3333 194.143 103.133 193.077 115.4C192.01 127.667 191.21 137.333 190.677 144.4C190.143 151.333 189.743 156.4 189.477 159.6C189.21 162.667 189.01 164.667 188.877 165.6C188.877 166.533 188.877 167.133 188.877 167.4C188.877 175.667 190.81 181.533 194.677 185C198.677 188.467 204.01 190.2 210.677 190.2C214.41 190.2 218.077 189.467 221.677 188C225.41 186.533 228.477 183.8 230.877 179.8C233.41 175.8 234.743 170.133 234.877 162.8L236.677 70L256.677 69L250.677 163C250.143 171.933 248.343 179.267 245.277 185C242.21 190.6 238.343 194.933 233.677 198C229.01 200.933 224.01 202.933 218.677 204C213.343 205.2 208.077 205.8 202.877 205.8ZM343.534 204L300.134 105.4H298.934L295.734 201L275.734 202L285.134 71L333.534 69L353.734 164.2L377.134 68L425.534 71L431.534 201L413.534 204L384.934 97.6H383.334L361.534 201L343.534 204ZM461.625 202.8L452.225 71L540.425 68.2L539.825 81.6L497.625 86.6L492.425 128L535.025 127.6L536.025 145.6L490.825 142.2L485.425 186.8L540.625 180.4L539.825 201L461.625 202.8ZM642.519 204L577.719 96.8H576.119L576.719 201L556.719 202L562.119 71L610.519 68L645.519 167.8H647.119L649.119 70L669.119 69L660.519 201L642.519 204Z" fill="#1C2128"/>
<path d="M111.8 204L103.242 209.173L113.444 213.864L111.8 204ZM47 96.8L55.558 91.6269L47 86.8V96.8ZM45.4 96.8V86.8L35.4002 96.8576L45.4 96.8ZM46 201L46.4994 210.988L55.9998 200.942L46 201ZM26 202L16.0085 201.588L26.4994 211.988L26 202ZM31.4 71L30.7814 61.0191L21.4085 70.5881L31.4 71ZM79.8 68L89.2365 64.6906L79.1814 58.0191L79.8 68ZM114.8 167.8L105.363 171.109L114.8 177.8V167.8ZM116.4 167.8V177.8L126.398 168.004L116.4 167.8ZM118.4 70L117.901 60.0125L108.402 69.7955L118.4 70ZM138.4 69L148.379 69.6501L137.901 59.0125L138.4 69ZM129.8 201L131.444 210.864L139.779 201.65L129.8 201ZM111.8 204L120.358 198.827L55.558 91.6269L47 96.8L38.442 101.973L103.242 209.173L111.8 204ZM47 96.8V86.8H45.4V96.8V106.8H47V96.8ZM45.4 96.8L35.4002 96.8576L36.0002 201.058L46 201L55.9998 200.942L55.3998 96.7424L45.4 96.8ZM46 201L45.5006 191.012L25.5006 192.012L26 202L26.4994 211.988L46.4994 210.988L46 201ZM26 202L35.9915 202.412L41.3915 71.4119L31.4 71L21.4085 70.5881L16.0085 201.588L26 202ZM31.4 71L32.0186 80.9808L80.4186 77.9808L79.8 68L79.1814 58.0191L30.7814 61.0191L31.4 71ZM79.8 68L70.3635 71.3094L105.363 171.109L114.8 167.8L124.237 164.491L89.2365 64.6906L79.8 68ZM114.8 167.8V177.8H116.4V167.8V157.8H114.8V167.8ZM116.4 167.8L126.398 168.004L128.398 70.2045L118.4 70L108.402 69.7955L106.402 167.596L116.4 167.8ZM118.4 70L118.899 79.9875L138.899 78.9875L138.4 69L137.901 59.0125L117.901 60.0125L118.4 70ZM138.4 69L128.421 68.3499L119.821 200.35L129.8 201L139.779 201.65L148.379 69.6501L138.4 69ZM129.8 201L128.156 191.136L110.156 194.136L111.8 204L113.444 213.864L131.444 210.864L129.8 201ZM182.677 201.4L178.362 210.421L178.437 210.457L182.677 201.4ZM167.277 186.8L158.731 191.994L167.277 186.8ZM159.077 159.6L149.135 160.677L149.145 160.768L159.077 159.6ZM149.477 71L148.848 61.0198L139.535 72.0772L149.477 71ZM197.077 68L207.042 68.8248L196.448 58.0198L197.077 68ZM193.077 115.4L183.114 114.534L193.077 115.4ZM190.677 144.4L200.647 145.167L200.648 145.153L190.677 144.4ZM189.477 159.6L199.439 160.466L199.442 160.43L189.477 159.6ZM188.877 165.6L178.977 164.186L178.877 165.6H188.877ZM194.677 185L188.001 192.446L188.127 192.557L194.677 185ZM221.677 188L218.02 178.692L217.904 178.739L221.677 188ZM230.877 179.8L222.428 174.449L222.302 174.655L230.877 179.8ZM234.877 162.8L224.878 162.606L224.878 162.618L234.877 162.8ZM236.677 70L236.177 60.0125L226.678 69.8061L236.677 70ZM256.677 69L266.656 69.637L256.177 59.0125L256.677 69ZM250.677 163L240.697 162.363L240.694 162.404L250.677 163ZM245.277 185L254.048 189.803L254.094 189.717L245.277 185ZM233.677 198L238.998 206.466L239.168 206.357L233.677 198ZM218.677 204L216.715 194.194L216.481 194.244L218.677 204ZM202.877 205.8V195.8C197.081 195.8 191.801 194.63 186.916 192.343L182.677 201.4L178.437 210.457C186.085 214.037 194.272 215.8 202.877 215.8V205.8ZM182.677 201.4L186.991 192.379C182.891 190.418 179.122 187.035 175.822 181.606L167.277 186.8L158.731 191.994C163.698 200.165 170.195 206.515 178.362 210.421L182.677 201.4ZM167.277 186.8L175.822 181.606C172.685 176.445 170.241 168.912 169.008 158.432L159.077 159.6L149.145 160.768C150.579 172.955 153.602 183.555 158.731 191.994L167.277 186.8ZM159.077 159.6L169.018 158.523L159.418 69.9228L149.477 71L139.535 72.0772L149.135 160.677L159.077 159.6ZM149.477 71L150.106 80.9802L197.706 77.9802L197.077 68L196.448 58.0198L148.848 61.0198L149.477 71ZM197.077 68L187.111 67.1752C185.511 86.5016 184.179 102.286 183.114 114.534L193.077 115.4L203.039 116.266C204.107 103.98 205.442 88.1651 207.042 68.8248L197.077 68ZM193.077 115.4L183.114 114.534C182.046 126.815 181.242 136.525 180.705 143.647L190.677 144.4L200.648 145.153C201.177 138.142 201.974 128.518 203.039 116.266L193.077 115.4ZM190.677 144.4L180.706 143.633C180.173 150.564 179.775 155.603 179.511 158.77L189.477 159.6L199.442 160.43C199.712 157.197 200.114 152.103 200.647 145.167L190.677 144.4ZM189.477 159.6L179.514 158.734C179.242 161.864 179.064 163.577 178.977 164.186L188.877 165.6L198.776 167.014C198.956 165.757 199.178 163.47 199.439 160.466L189.477 159.6ZM188.877 165.6H178.877C178.877 165.602 178.877 165.604 178.877 165.605C178.877 165.607 178.877 165.609 178.877 165.611C178.877 165.613 178.877 165.615 178.877 165.616C178.877 165.618 178.877 165.62 178.877 165.622C178.877 165.624 178.877 165.625 178.877 165.627C178.877 165.629 178.877 165.631 178.877 165.633C178.877 165.634 178.877 165.636 178.877 165.638C178.877 165.64 178.877 165.642 178.877 165.644C178.877 165.645 178.877 165.647 178.877 165.649C178.877 165.651 178.877 165.653 178.877 165.654C178.877 165.656 178.877 165.658 178.877 165.66C178.877 165.661 178.877 165.663 178.877 165.665C178.877 165.667 178.877 165.669 178.877 165.67C178.877 165.672 178.877 165.674 178.877 165.676C178.877 165.678 178.877 165.679 178.877 165.681C178.877 165.683 178.877 165.685 178.877 165.687C178.877 165.688 178.877 165.69 178.877 165.692C178.877 165.694 178.877 165.695 178.877 165.697C178.877 165.699 178.877 165.701 178.877 165.703C178.877 165.704 178.877 165.706 178.877 165.708C178.877 165.71 178.877 165.711 178.877 165.713C178.877 165.715 178.877 165.717 178.877 165.718C178.877 165.72 178.877 165.722 178.877 165.724C178.877 165.726 178.877 165.727 178.877 165.729C178.877 165.731 178.877 165.733 178.877 165.734C178.877 165.736 178.877 165.738 178.877 165.74C178.877 165.741 178.877 165.743 178.877 165.745C178.877 165.747 178.877 165.748 178.877 165.75C178.877 165.752 178.877 165.754 178.877 165.755C178.877 165.757 178.877 165.759 178.877 165.761C178.877 165.762 178.877 165.764 178.877 165.766C178.877 165.768 178.877 165.769 178.877 165.771C178.877 165.773 178.877 165.775 178.877 165.776C178.877 165.778 178.877 165.78 178.877 165.782C178.877 165.783 178.877 165.785 178.877 165.787C178.877 165.788 178.877 165.79 178.877 165.792C178.877 165.794 178.877 165.795 178.877 165.797C178.877 165.799 178.877 165.801 178.877 165.802C178.877 165.804 178.877 165.806 178.877 165.807C178.877 165.809 178.877 165.811 178.877 165.813C178.877 165.814 178.877 165.816 178.877 165.818C178.877 165.82 178.877 165.821 178.877 165.823C178.877 165.825 178.877 165.826 178.877 165.828C178.877 165.83 178.877 165.832 178.877 165.833C178.877 165.835 178.877 165.837 178.877 165.838C178.877 165.84 178.877 165.842 178.877 165.843C178.877 165.845 178.877 165.847 178.877 165.849C178.877 165.85 178.877 165.852 178.877 165.854C178.877 165.855 178.877 165.857 178.877 165.859C178.877 165.861 178.877 165.862 178.877 165.864C178.877 165.866 178.877 165.867 178.877 165.869C178.877 165.871 178.877 165.872 178.877 165.874C178.877 165.876 178.877 165.877 178.877 165.879C178.877 165.881 178.877 165.883 178.877 165.884C178.877 165.886 178.877 165.888 178.877 165.889C178.877 165.891 178.877 165.893 178.877 165.894C178.877 165.896 178.877 165.898 178.877 165.899C178.877 165.901 178.877 165.903 178.877 165.904C178.877 165.906 178.877 165.908 178.877 165.909C178.877 165.911 178.877 165.913 178.877 165.914C178.877 165.916 178.877 165.918 178.877 165.919C178.877 165.921 178.877 165.923 178.877 165.924C178.877 165.926 178.877 165.928 178.877 165.929C178.877 165.931 178.877 165.933 178.877 165.934C178.877 165.936 178.877 165.938 178.877 165.939C178.877 165.941 178.877 165.943 178.877 165.944C178.877 165.946 178.877 165.948 178.877 165.949C178.877 165.951 178.877 165.953 178.877 165.954C178.877 165.956 178.877 165.958 178.877 165.959C178.877 165.961 178.877 165.962 178.877 165.964C178.877 165.966 178.877 165.967 178.877 165.969C178.877 165.971 178.877 165.972 178.877 165.974C178.877 165.976 178.877 165.977 178.877 165.979C178.877 165.981 178.877 165.982 178.877 165.984C178.877 165.985 178.877 165.987 178.877 165.989C178.877 165.99 178.877 165.992 178.877 165.994C178.877 165.995 178.877 165.997 178.877 165.998C178.877 166 178.877 166.002 178.877 166.003C178.877 166.005 178.877 166.007 178.877 166.008C178.877 166.01 178.877 166.011 178.877 166.013C178.877 166.015 178.877 166.016 178.877 166.018C178.877 166.02 178.877 166.021 178.877 166.023C178.877 166.024 178.877 166.026 178.877 166.028C178.877 166.029 178.877 166.031 178.877 166.032C178.877 166.034 178.877 166.036 178.877 166.037C178.877 166.039 178.877 166.04 178.877 166.042C178.877 166.044 178.877 166.045 178.877 166.047C178.877 166.049 178.877 166.05 178.877 166.052C178.877 166.053 178.877 166.055 178.877 166.057C178.877 166.058 178.877 166.06 178.877 166.061C178.877 166.063 178.877 166.064 178.877 166.066C178.877 166.068 178.877 166.069 178.877 166.071C178.877 166.072 178.877 166.074 178.877 166.076C178.877 166.077 178.877 166.079 178.877 166.08C178.877 166.082 178.877 166.084 178.877 166.085C178.877 166.087 178.877 166.088 178.877 166.09C178.877 166.091 178.877 166.093 178.877 166.095C178.877 166.096 178.877 166.098 178.877 166.099C178.877 166.101 178.877 166.102 178.877 166.104C178.877 166.106 178.877 166.107 178.877 166.109C178.877 166.11 178.877 166.112 178.877 166.113C178.877 166.115 178.877 166.117 178.877 166.118C178.877 166.12 178.877 166.121 178.877 166.123C178.877 166.124 178.877 166.126 178.877 166.127C178.877 166.129 178.877 166.131 178.877 166.132C178.877 166.134 178.877 166.135 178.877 166.137C178.877 166.138 178.877 166.14 178.877 166.141C178.877 166.143 178.877 166.145 178.877 166.146C178.877 166.148 178.877 166.149 178.877 166.151C178.877 166.152 178.877 166.154 178.877 166.155C178.877 166.157 178.877 166.158 178.877 166.16C178.877 166.162 178.877 166.163 178.877 166.165C178.877 166.166 178.877 166.168 178.877 166.169C178.877 166.171 178.877 166.172 178.877 166.174C178.877 166.175 178.877 166.177 178.877 166.178C178.877 166.18 178.877 166.182 178.877 166.183C178.877 166.185 178.877 166.186 178.877 166.188C178.877 166.189 178.877 166.191 178.877 166.192C178.877 166.194 178.877 166.195 178.877 166.197C178.877 166.198 178.877 166.2 178.877 166.201C178.877 166.203 178.877 166.204 178.877 166.206C178.877 166.207 178.877 166.209 178.877 166.21C178.877 166.212 178.877 166.213 178.877 166.215C178.877 166.216 178.877 166.218 178.877 166.219C178.877 166.221 178.877 166.222 178.877 166.224C178.877 166.225 178.877 166.227 178.877 166.229C178.877 166.23 178.877 166.232 178.877 166.233C178.877 166.234 178.877 166.236 178.877 166.238C178.877 166.239 178.877 166.24 178.877 166.242C178.877 166.243 178.877 166.245 178.877 166.246C178.877 166.248 178.877 166.249 178.877 166.251C178.877 166.252 178.877 166.254 178.877 166.255C178.877 166.257 178.877 166.258 178.877 166.26C178.877 166.261 178.877 166.263 178.877 166.264C178.877 166.266 178.877 166.267 178.877 166.269C178.877 166.27 178.877 166.272 178.877 166.273C178.877 166.275 178.877 166.276 178.877 166.278C178.877 166.279 178.877 166.281 178.877 166.282C178.877 166.284 178.877 166.285 178.877 166.286C178.877 166.288 178.877 166.289 178.877 166.291C178.877 166.292 178.877 166.294 178.877 166.295C178.877 166.297 178.877 166.298 178.877 166.3C178.877 166.301 178.877 166.303 178.877 166.304C178.877 166.305 178.877 166.307 178.877 166.308C178.877 166.31 178.877 166.311 178.877 166.313C178.877 166.314 178.877 166.316 178.877 166.317C178.877 166.319 178.877 166.32 178.877 166.321C178.877 166.323 178.877 166.324 178.877 166.326C178.877 166.327 178.877 166.329 178.877 166.33C178.877 166.332 178.877 166.333 178.877 166.334C178.877 166.336 178.877 166.337 178.877 166.339C178.877 166.34 178.877 166.342 178.877 166.343C178.877 166.345 178.877 166.346 178.877 166.347C178.877 166.349 178.877 166.35 178.877 166.352C178.877 166.353 178.877 166.355 178.877 166.356C178.877 166.357 178.877 166.359 178.877 166.36C178.877 166.362 178.877 166.363 178.877 166.365C178.877 166.366 178.877 166.367 178.877 166.369C178.877 166.37 178.877 166.372 178.877 166.373C178.877 166.375 178.877 166.376 178.877 166.377C178.877 166.379 178.877 166.38 178.877 166.382C178.877 166.383 178.877 166.384 178.877 166.386C178.877 166.387 178.877 166.389 178.877 166.39C178.877 166.391 178.877 166.393 178.877 166.394C178.877 166.396 178.877 166.397 178.877 166.398C178.877 166.4 178.877 166.401 178.877 166.403C178.877 166.404 178.877 166.405 178.877 166.407C178.877 166.408 178.877 166.41 178.877 166.411C178.877 166.412 178.877 166.414 178.877 166.415C178.877 166.417 178.877 166.418 178.877 166.419C178.877 166.421 178.877 166.422 178.877 166.424C178.877 166.425 178.877 166.426 178.877 166.428C178.877 166.429 178.877 166.431 178.877 166.432C178.877 166.433 178.877 166.435 178.877 166.436C178.877 166.437 178.877 166.439 178.877 166.44C178.877 166.442 178.877 166.443 178.877 166.444C178.877 166.446 178.877 166.447 178.877 166.448C178.877 166.45 178.877 166.451 178.877 166.453C178.877 166.454 178.877 166.455 178.877 166.457C178.877 166.458 178.877 166.459 178.877 166.461C178.877 166.462 178.877 166.464 178.877 166.465C178.877 166.466 178.877 166.468 178.877 166.469C178.877 166.47 178.877 166.472 178.877 166.473C178.877 166.474 178.877 166.476 178.877 166.477C178.877 166.478 178.877 166.48 178.877 166.481C178.877 166.483 178.877 166.484 178.877 166.485C178.877 166.487 178.877 166.488 178.877 166.489C178.877 166.491 178.877 166.492 178.877 166.493C178.877 166.495 178.877 166.496 178.877 166.497C178.877 166.499 178.877 166.5 178.877 166.501C178.877 166.503 178.877 166.504 178.877 166.505C178.877 166.507 178.877 166.508 178.877 166.509C178.877 166.511 178.877 166.512 178.877 166.513C178.877 166.515 178.877 166.516 178.877 166.517C178.877 166.519 178.877 166.52 178.877 166.521C178.877 166.523 178.877 166.524 178.877 166.525C178.877 166.527 178.877 166.528 178.877 166.529C178.877 166.531 178.877 166.532 178.877 166.533C178.877 166.535 178.877 166.536 178.877 166.537C178.877 166.539 178.877 166.54 178.877 166.541C178.877 166.542 178.877 166.544 178.877 166.545C178.877 166.546 178.877 166.548 178.877 166.549C178.877 166.55 178.877 166.552 178.877 166.553C178.877 166.554 178.877 166.556 178.877 166.557C178.877 166.558 178.877 166.559 178.877 166.561C178.877 166.562 178.877 166.563 178.877 166.565C178.877 166.566 178.877 166.567 178.877 166.569C178.877 166.57 178.877 166.571 178.877 166.572C178.877 166.574 178.877 166.575 178.877 166.576C178.877 166.578 178.877 166.579 178.877 166.58C178.877 166.581 178.877 166.583 178.877 166.584C178.877 166.585 178.877 166.587 178.877 166.588C178.877 166.589 178.877 166.59 178.877 166.592C178.877 166.593 178.877 166.594 178.877 166.596C178.877 166.597 178.877 166.598 178.877 166.599C178.877 166.601 178.877 166.602 178.877 166.603C178.877 166.605 178.877 166.606 178.877 166.607C178.877 166.608 178.877 166.61 178.877 166.611C178.877 166.612 178.877 166.613 178.877 166.615C178.877 166.616 178.877 166.617 178.877 166.618C178.877 166.62 178.877 166.621 178.877 166.622C178.877 166.624 178.877 166.625 178.877 166.626C178.877 166.627 178.877 166.629 178.877 166.63C178.877 166.631 178.877 166.632 178.877 166.634C178.877 166.635 178.877 166.636 178.877 166.637C178.877 166.639 178.877 166.64 178.877 166.641C178.877 166.642 178.877 166.644 178.877 166.645C178.877 166.646 178.877 166.647 178.877 166.649C178.877 166.65 178.877 166.651 178.877 166.652C178.877 166.654 178.877 166.655 178.877 166.656C178.877 166.657 178.877 166.658 178.877 166.66C178.877 166.661 178.877 166.662 178.877 166.663C178.877 166.665 178.877 166.666 178.877 166.667C178.877 166.668 178.877 166.67 178.877 166.671C178.877 166.672 178.877 166.673 178.877 166.674C178.877 166.676 178.877 166.677 178.877 166.678C178.877 166.679 178.877 166.681 178.877 166.682C178.877 166.683 178.877 166.684 178.877 166.685C178.877 166.687 178.877 166.688 178.877 166.689C178.877 166.69 178.877 166.692 178.877 166.693C178.877 166.694 178.877 166.695 178.877 166.696C178.877 166.698 178.877 166.699 178.877 166.7C178.877 166.701 178.877 166.702 178.877 166.704C178.877 166.705 178.877 166.706 178.877 166.707C178.877 166.708 178.877 166.71 178.877 166.711C178.877 166.712 178.877 166.713 178.877 166.714C178.877 166.716 178.877 166.717 178.877 166.718C178.877 166.719 178.877 166.72 178.877 166.722C178.877 166.723 178.877 166.724 178.877 166.725C178.877 166.726 178.877 166.728 178.877 166.729C178.877 166.73 178.877 166.731 178.877 166.732C178.877 166.734 178.877 166.735 178.877 166.736C178.877 166.737 178.877 166.738 178.877 166.739C178.877 166.741 178.877 166.742 178.877 166.743C178.877 166.744 178.877 166.745 178.877 166.746C178.877 166.748 178.877 166.749 178.877 166.75C178.877 166.751 178.877 166.752 178.877 166.754C178.877 166.755 178.877 166.756 178.877 166.757C178.877 166.758 178.877 166.759 178.877 166.761C178.877 166.762 178.877 166.763 178.877 166.764C178.877 166.765 178.877 166.766 178.877 166.767C178.877 166.769 178.877 166.77 178.877 166.771C178.877 166.772 178.877 166.773 178.877 166.774C178.877 166.776 178.877 166.777 178.877 166.778C178.877 166.779 178.877 166.78 178.877 166.781C178.877 166.782 178.877 166.784 178.877 166.785C178.877 166.786 178.877 166.787 178.877 166.788C178.877 166.789 178.877 166.79 178.877 166.792C178.877 166.793 178.877 166.794 178.877 166.795C178.877 166.796 178.877 166.797 178.877 166.798C178.877 166.8 178.877 166.801 178.877 166.802C178.877 166.803 178.877 166.804 178.877 166.805C178.877 166.806 178.877 166.808 178.877 166.809C178.877 166.81 178.877 166.811 178.877 166.812C178.877 166.813 178.877 166.814 178.877 166.815C178.877 166.817 178.877 166.818 178.877 166.819C178.877 166.82 178.877 166.821 178.877 166.822C178.877 166.823 178.877 166.824 178.877 166.826C178.877 166.827 178.877 166.828 178.877 166.829C178.877 166.83 178.877 166.831 178.877 166.832C178.877 166.833 178.877 166.834 178.877 166.836C178.877 166.837 178.877 166.838 178.877 166.839C178.877 166.84 178.877 166.841 178.877 166.842C178.877 166.843 178.877 166.844 178.877 166.845C178.877 166.847 178.877 166.848 178.877 166.849C178.877 166.85 178.877 166.851 178.877 166.852C178.877 166.853 178.877 166.854 178.877 166.855C178.877 166.856 178.877 166.857 178.877 166.859C178.877 166.86 178.877 166.861 178.877 166.862C178.877 166.863 178.877 166.864 178.877 166.865C178.877 166.866 178.877 166.867 178.877 166.868C178.877 166.869 178.877 166.871 178.877 166.872C178.877 166.873 178.877 166.874 178.877 166.875C178.877 166.876 178.877 166.877 178.877 166.878C178.877 166.879 178.877 166.88 178.877 166.881C178.877 166.882 178.877 166.883 178.877 166.885C178.877 166.886 178.877 166.887 178.877 166.888C178.877 166.889 178.877 166.89 178.877 166.891C178.877 166.892 178.877 166.893 178.877 166.894C178.877 166.895 178.877 166.896 178.877 166.897C178.877 166.898 178.877 166.899 178.877 166.9C178.877 166.902 178.877 166.903 178.877 166.904C178.877 166.905 178.877 166.906 178.877 166.907C178.877 166.908 178.877 166.909 178.877 166.91C178.877 166.911 178.877 166.912 178.877 166.913C178.877 166.914 178.877 166.915 178.877 166.916C178.877 166.917 178.877 166.918 178.877 166.919C178.877 166.92 178.877 166.921 178.877 166.923C178.877 166.924 178.877 166.925 178.877 166.926C178.877 166.927 178.877 166.928 178.877 166.929C178.877 166.93 178.877 166.931 178.877 166.932C178.877 166.933 178.877 166.934 178.877 166.935C178.877 166.936 178.877 166.937 178.877 166.938C178.877 166.939 178.877 166.94 178.877 166.941C178.877 166.942 178.877 166.943 178.877 166.944C178.877 166.945 178.877 166.946 178.877 166.947C178.877 166.948 178.877 166.949 178.877 166.95C178.877 166.951 178.877 166.952 178.877 166.953C178.877 166.954 178.877 166.955 178.877 166.956C178.877 166.957 178.877 166.958 178.877 166.959C178.877 166.96 178.877 166.961 178.877 166.962C178.877 166.963 178.877 166.964 178.877 166.965C178.877 166.966 178.877 166.967 178.877 166.968C178.877 166.969 178.877 166.97 178.877 166.971C178.877 166.972 178.877 166.973 178.877 166.974C178.877 166.975 178.877 166.976 178.877 166.977C178.877 166.978 178.877 166.979 178.877 166.98C178.877 166.981 178.877 166.982 178.877 166.983C178.877 166.984 178.877 166.985 178.877 166.986C178.877 166.987 178.877 166.988 178.877 166.989C178.877 166.99 178.877 166.991 178.877 166.992C178.877 166.993 178.877 166.994 178.877 166.995C178.877 166.996 178.877 166.997 178.877 166.998C178.877 166.999 178.877 167 178.877 167.001C178.877 167.002 178.877 167.003 178.877 167.004C178.877 167.005 178.877 167.006 178.877 167.007C178.877 167.008 178.877 167.009 178.877 167.01C178.877 167.011 178.877 167.012 178.877 167.013C178.877 167.014 178.877 167.015 178.877 167.016C178.877 167.016 178.877 167.017 178.877 167.018C178.877 167.019 178.877 167.02 178.877 167.021C178.877 167.022 178.877 167.023 178.877 167.024C178.877 167.025 178.877 167.026 178.877 167.027C178.877 167.028 178.877 167.029 178.877 167.03C178.877 167.031 178.877 167.032 178.877 167.033C178.877 167.034 178.877 167.035 178.877 167.036C178.877 167.036 178.877 167.037 178.877 167.038C178.877 167.039 178.877 167.04 178.877 167.041C178.877 167.042 178.877 167.043 178.877 167.044C178.877 167.045 178.877 167.046 178.877 167.047C178.877 167.048 178.877 167.049 178.877 167.05C178.877 167.05 178.877 167.051 178.877 167.052C178.877 167.053 178.877 167.054 178.877 167.055C178.877 167.056 178.877 167.057 178.877 167.058C178.877 167.059 178.877 167.06 178.877 167.061C178.877 167.062 178.877 167.062 178.877 167.063C178.877 167.064 178.877 167.065 178.877 167.066C178.877 167.067 178.877 167.068 178.877 167.069C178.877 167.07 178.877 167.071 178.877 167.072C178.877 167.073 178.877 167.073 178.877 167.074C178.877 167.075 178.877 167.076 178.877 167.077C178.877 167.078 178.877 167.079 178.877 167.08C178.877 167.081 178.877 167.082 178.877 167.082C178.877 167.083 178.877 167.084 178.877 167.085C178.877 167.086 178.877 167.087 178.877 167.088C178.877 167.089 178.877 167.09 178.877 167.091C178.877 167.091 178.877 167.092 178.877 167.093C178.877 167.094 178.877 167.095 178.877 167.096C178.877 167.097 178.877 167.098 178.877 167.099C178.877 167.099 178.877 167.1 178.877 167.101C178.877 167.102 178.877 167.103 178.877 167.104C178.877 167.105 178.877 167.106 178.877 167.106C178.877 167.107 178.877 167.108 178.877 167.109C178.877 167.11 178.877 167.111 178.877 167.112C178.877 167.113 178.877 167.113 178.877 167.114C178.877 167.115 178.877 167.116 178.877 167.117C178.877 167.118 178.877 167.119 178.877 167.12C178.877 167.12 178.877 167.121 178.877 167.122C178.877 167.123 178.877 167.124 178.877 167.125C178.877 167.126 178.877 167.126 178.877 167.127C178.877 167.128 178.877 167.129 178.877 167.13C178.877 167.131 178.877 167.132 178.877 167.132C178.877 167.133 178.877 167.134 178.877 167.135C178.877 167.136 178.877 167.137 178.877 167.137C178.877 167.138 178.877 167.139 178.877 167.14C178.877 167.141 178.877 167.142 178.877 167.143C178.877 167.143 178.877 167.144 178.877 167.145C178.877 167.146 178.877 167.147 178.877 167.148C178.877 167.148 178.877 167.149 178.877 167.15C178.877 167.151 178.877 167.152 178.877 167.153C178.877 167.153 178.877 167.154 178.877 167.155C178.877 167.156 178.877 167.157 178.877 167.158C178.877 167.158 178.877 167.159 178.877 167.16C178.877 167.161 178.877 167.162 178.877 167.163C178.877 167.163 178.877 167.164 178.877 167.165C178.877 167.166 178.877 167.167 178.877 167.167C178.877 167.168 178.877 167.169 178.877 167.17C178.877 167.171 178.877 167.171 178.877 167.172C178.877 167.173 178.877 167.174 178.877 167.175C178.877 167.176 178.877 167.176 178.877 167.177C178.877 167.178 178.877 167.179 178.877 167.18C178.877 167.18 178.877 167.181 178.877 167.182C178.877 167.183 178.877 167.184 178.877 167.184C178.877 167.185 178.877 167.186 178.877 167.187C178.877 167.188 178.877 167.188 178.877 167.189C178.877 167.19 178.877 167.191 178.877 167.192C178.877 167.192 178.877 167.193 178.877 167.194C178.877 167.195 178.877 167.195 178.877 167.196C178.877 167.197 178.877 167.198 178.877 167.199C178.877 167.199 178.877 167.2 178.877 167.201C178.877 167.202 178.877 167.202 178.877 167.203C178.877 167.204 178.877 167.205 178.877 167.206C178.877 167.206 178.877 167.207 178.877 167.208C178.877 167.209 178.877 167.209 178.877 167.21C178.877 167.211 178.877 167.212 178.877 167.213C178.877 167.213 178.877 167.214 178.877 167.215C178.877 167.216 178.877 167.216 178.877 167.217C178.877 167.218 178.877 167.219 178.877 167.219C178.877 167.22 178.877 167.221 178.877 167.222C178.877 167.222 178.877 167.223 178.877 167.224C178.877 167.225 178.877 167.225 178.877 167.226C178.877 167.227 178.877 167.228 178.877 167.228C178.877 167.229 178.877 167.23 178.877 167.231C178.877 167.231 178.877 167.232 178.877 167.233C178.877 167.234 178.877 167.234 178.877 167.235C178.877 167.236 178.877 167.237 178.877 167.237C178.877 167.238 178.877 167.239 178.877 167.24C178.877 167.24 178.877 167.241 178.877 167.242C178.877 167.243 178.877 167.243 178.877 167.244C178.877 167.245 178.877 167.245 178.877 167.246C178.877 167.247 178.877 167.248 178.877 167.248C178.877 167.249 178.877 167.25 178.877 167.251C178.877 167.251 178.877 167.252 178.877 167.253C178.877 167.253 178.877 167.254 178.877 167.255C178.877 167.256 178.877 167.256 178.877 167.257C178.877 167.258 178.877 167.258 178.877 167.259C178.877 167.26 178.877 167.261 178.877 167.261C178.877 167.262 178.877 167.263 178.877 167.263C178.877 167.264 178.877 167.265 178.877 167.266C178.877 167.266 178.877 167.267 178.877 167.268C178.877 167.268 178.877 167.269 178.877 167.27C178.877 167.271 178.877 167.271 178.877 167.272C178.877 167.273 178.877 167.273 178.877 167.274C178.877 167.275 178.877 167.275 178.877 167.276C178.877 167.277 178.877 167.277 178.877 167.278C178.877 167.279 178.877 167.28 178.877 167.28C178.877 167.281 178.877 167.282 178.877 167.282C178.877 167.283 178.877 167.284 178.877 167.284C178.877 167.285 178.877 167.286 178.877 167.286C178.877 167.287 178.877 167.288 178.877 167.288C178.877 167.289 178.877 167.29 178.877 167.29C178.877 167.291 178.877 167.292 178.877 167.293C178.877 167.293 178.877 167.294 178.877 167.295C178.877 167.295 178.877 167.296 178.877 167.297C178.877 167.297 178.877 167.298 178.877 167.299C178.877 167.299 178.877 167.3 178.877 167.301C178.877 167.301 178.877 167.302 178.877 167.303C178.877 167.303 178.877 167.304 178.877 167.305C178.877 167.305 178.877 167.306 178.877 167.306C178.877 167.307 178.877 167.308 178.877 167.308C178.877 167.309 178.877 167.31 178.877 167.31C178.877 167.311 178.877 167.312 178.877 167.312C178.877 167.313 178.877 167.314 178.877 167.314C178.877 167.315 178.877 167.316 178.877 167.316C178.877 167.317 178.877 167.317 178.877 167.318C178.877 167.319 178.877 167.319 178.877 167.32C178.877 167.321 178.877 167.321 178.877 167.322C178.877 167.323 178.877 167.323 178.877 167.324C178.877 167.324 178.877 167.325 178.877 167.326C178.877 167.326 178.877 167.327 178.877 167.328C178.877 167.328 178.877 167.329 178.877 167.33C178.877 167.33 178.877 167.331 178.877 167.331C178.877 167.332 178.877 167.333 178.877 167.333C178.877 167.334 178.877 167.335 178.877 167.335C178.877 167.336 178.877 167.336 178.877 167.337C178.877 167.338 178.877 167.338 178.877 167.339C178.877 167.339 178.877 167.34 178.877 167.341C178.877 167.341 178.877 167.342 178.877 167.342C178.877 167.343 178.877 167.344 178.877 167.344C178.877 167.345 178.877 167.345 178.877 167.346C178.877 167.347 178.877 167.347 178.877 167.348C178.877 167.348 178.877 167.349 178.877 167.35C178.877 167.35 178.877 167.351 178.877 167.351C178.877 167.352 178.877 167.353 178.877 167.353C178.877 167.354 178.877 167.354 178.877 167.355C178.877 167.356 178.877 167.356 178.877 167.357C178.877 167.357 178.877 167.358 178.877 167.359C178.877 167.359 178.877 167.36 178.877 167.36C178.877 167.361 178.877 167.361 178.877 167.362C178.877 167.363 178.877 167.363 178.877 167.364C178.877 167.364 178.877 167.365 178.877 167.366C178.877 167.366 178.877 167.367 178.877 167.367C178.877 167.368 178.877 167.368 178.877 167.369C178.877 167.37 178.877 167.37 178.877 167.371C178.877 167.371 178.877 167.372 178.877 167.372C178.877 167.373 178.877 167.373 178.877 167.374C178.877 167.375 178.877 167.375 178.877 167.376C178.877 167.376 178.877 167.377 178.877 167.377C178.877 167.378 178.877 167.378 178.877 167.379C178.877 167.38 178.877 167.38 178.877 167.381C178.877 167.381 178.877 167.382 178.877 167.382C178.877 167.383 178.877 167.383 178.877 167.384C178.877 167.385 178.877 167.385 178.877 167.386C178.877 167.386 178.877 167.387 178.877 167.387C178.877 167.388 178.877 167.388 178.877 167.389C178.877 167.389 178.877 167.39 178.877 167.39C178.877 167.391 178.877 167.392 178.877 167.392C178.877 167.393 178.877 167.393 178.877 167.394C178.877 167.394 178.877 167.395 178.877 167.395C178.877 167.396 178.877 167.396 178.877 167.397C178.877 167.397 178.877 167.398 178.877 167.398C178.877 167.399 178.877 167.399 178.877 167.4H188.877H198.877C198.877 167.399 198.877 167.399 198.877 167.398C198.877 167.398 198.877 167.397 198.877 167.397C198.877 167.396 198.877 167.396 198.877 167.395C198.877 167.395 198.877 167.394 198.877 167.394C198.877 167.393 198.877 167.393 198.877 167.392C198.877 167.392 198.877 167.391 198.877 167.39C198.877 167.39 198.877 167.389 198.877 167.389C198.877 167.388 198.877 167.388 198.877 167.387C198.877 167.387 198.877 167.386 198.877 167.386C198.877 167.385 198.877 167.385 198.877 167.384C198.877 167.383 198.877 167.383 198.877 167.382C198.877 167.382 198.877 167.381 198.877 167.381C198.877 167.38 198.877 167.38 198.877 167.379C198.877 167.378 198.877 167.378 198.877 167.377C198.877 167.377 198.877 167.376 198.877 167.376C198.877 167.375 198.877 167.375 198.877 167.374C198.877 167.373 198.877 167.373 198.877 167.372C198.877 167.372 198.877 167.371 198.877 167.371C198.877 167.37 198.877 167.37 198.877 167.369C198.877 167.368 198.877 167.368 198.877 167.367C198.877 167.367 198.877 167.366 198.877 167.366C198.877 167.365 198.877 167.364 198.877 167.364C198.877 167.363 198.877 167.363 198.877 167.362C198.877 167.361 198.877 167.361 198.877 167.36C198.877 167.36 198.877 167.359 198.877 167.359C198.877 167.358 198.877 167.357 198.877 167.357C198.877 167.356 198.877 167.356 198.877 167.355C198.877 167.354 198.877 167.354 198.877 167.353C198.877 167.353 198.877 167.352 198.877 167.351C198.877 167.351 198.877 167.35 198.877 167.35C198.877 167.349 198.877 167.348 198.877 167.348C198.877 167.347 198.877 167.347 198.877 167.346C198.877 167.345 198.877 167.345 198.877 167.344C198.877 167.344 198.877 167.343 198.877 167.342C198.877 167.342 198.877 167.341 198.877 167.341C198.877 167.34 198.877 167.339 198.877 167.339C198.877 167.338 198.877 167.338 198.877 167.337C198.877 167.336 198.877 167.336 198.877 167.335C198.877 167.335 198.877 167.334 198.877 167.333C198.877 167.333 198.877 167.332 198.877 167.331C198.877 167.331 198.877 167.33 198.877 167.33C198.877 167.329 198.877 167.328 198.877 167.328C198.877 167.327 198.877 167.326 198.877 167.326C198.877 167.325 198.877 167.324 198.877 167.324C198.877 167.323 198.877 167.323 198.877 167.322C198.877 167.321 198.877 167.321 198.877 167.32C198.877 167.319 198.877 167.319 198.877 167.318C198.877 167.317 198.877 167.317 198.877 167.316C198.877 167.316 198.877 167.315 198.877 167.314C198.877 167.314 198.877 167.313 198.877 167.312C198.877 167.312 198.877 167.311 198.877 167.31C198.877 167.31 198.877 167.309 198.877 167.308C198.877 167.308 198.877 167.307 198.877 167.306C198.877 167.306 198.877 167.305 198.877 167.305C198.877 167.304 198.877 167.303 198.877 167.303C198.877 167.302 198.877 167.301 198.877 167.301C198.877 167.3 198.877 167.299 198.877 167.299C198.877 167.298 198.877 167.297 198.877 167.297C198.877 167.296 198.877 167.295 198.877 167.295C198.877 167.294 198.877 167.293 198.877 167.293C198.877 167.292 198.877 167.291 198.877 167.29C198.877 167.29 198.877 167.289 198.877 167.288C198.877 167.288 198.877 167.287 198.877 167.286C198.877 167.286 198.877 167.285 198.877 167.284C198.877 167.284 198.877 167.283 198.877 167.282C198.877 167.282 198.877 167.281 198.877 167.28C198.877 167.28 198.877 167.279 198.877 167.278C198.877 167.277 198.877 167.277 198.877 167.276C198.877 167.275 198.877 167.275 198.877 167.274C198.877 167.273 198.877 167.273 198.877 167.272C198.877 167.271 198.877 167.271 198.877 167.27C198.877 167.269 198.877 167.268 198.877 167.268C198.877 167.267 198.877 167.266 198.877 167.266C198.877 167.265 198.877 167.264 198.877 167.263C198.877 167.263 198.877 167.262 198.877 167.261C198.877 167.261 198.877 167.26 198.877 167.259C198.877 167.258 198.877 167.258 198.877 167.257C198.877 167.256 198.877 167.256 198.877 167.255C198.877 167.254 198.877 167.253 198.877 167.253C198.877 167.252 198.877 167.251 198.877 167.251C198.877 167.25 198.877 167.249 198.877 167.248C198.877 167.248 198.877 167.247 198.877 167.246C198.877 167.245 198.877 167.245 198.877 167.244C198.877 167.243 198.877 167.243 198.877 167.242C198.877 167.241 198.877 167.24 198.877 167.24C198.877 167.239 198.877 167.238 198.877 167.237C198.877 167.237 198.877 167.236 198.877 167.235C198.877 167.234 198.877 167.234 198.877 167.233C198.877 167.232 198.877 167.231 198.877 167.231C198.877 167.23 198.877 167.229 198.877 167.228C198.877 167.228 198.877 167.227 198.877 167.226C198.877 167.225 198.877 167.225 198.877 167.224C198.877 167.223 198.877 167.222 198.877 167.222C198.877 167.221 198.877 167.22 198.877 167.219C198.877 167.219 198.877 167.218 198.877 167.217C198.877 167.216 198.877 167.216 198.877 167.215C198.877 167.214 198.877 167.213 198.877 167.213C198.877 167.212 198.877 167.211 198.877 167.21C198.877 167.209 198.877 167.209 198.877 167.208C198.877 167.207 198.877 167.206 198.877 167.206C198.877 167.205 198.877 167.204 198.877 167.203C198.877 167.202 198.877 167.202 198.877 167.201C198.877 167.2 198.877 167.199 198.877 167.199C198.877 167.198 198.877 167.197 198.877 167.196C198.877 167.195 198.877 167.195 198.877 167.194C198.877 167.193 198.877 167.192 198.877 167.192C198.877 167.191 198.877 167.19 198.877 167.189C198.877 167.188 198.877 167.188 198.877 167.187C198.877 167.186 198.877 167.185 198.877 167.184C198.877 167.184 198.877 167.183 198.877 167.182C198.877 167.181 198.877 167.18 198.877 167.18C198.877 167.179 198.877 167.178 198.877 167.177C198.877 167.176 198.877 167.176 198.877 167.175C198.877 167.174 198.877 167.173 198.877 167.172C198.877 167.171 198.877 167.171 198.877 167.17C198.877 167.169 198.877 167.168 198.877 167.167C198.877 167.167 198.877 167.166 198.877 167.165C198.877 167.164 198.877 167.163 198.877 167.163C198.877 167.162 198.877 167.161 198.877 167.16C198.877 167.159 198.877 167.158 198.877 167.158C198.877 167.157 198.877 167.156 198.877 167.155C198.877 167.154 198.877 167.153 198.877 167.153C198.877 167.152 198.877 167.151 198.877 167.15C198.877 167.149 198.877 167.148 198.877 167.148C198.877 167.147 198.877 167.146 198.877 167.145C198.877 167.144 198.877 167.143 198.877 167.143C198.877 167.142 198.877 167.141 198.877 167.14C198.877 167.139 198.877 167.138 198.877 167.137C198.877 167.137 198.877 167.136 198.877 167.135C198.877 167.134 198.877 167.133 198.877 167.132C198.877 167.132 198.877 167.131 198.877 167.13C198.877 167.129 198.877 167.128 198.877 167.127C198.877 167.126 198.877 167.126 198.877 167.125C198.877 167.124 198.877 167.123 198.877 167.122C198.877 167.121 198.877 167.12 198.877 167.12C198.877 167.119 198.877 167.118 198.877 167.117C198.877 167.116 198.877 167.115 198.877 167.114C198.877 167.113 198.877 167.113 198.877 167.112C198.877 167.111 198.877 167.11 198.877 167.109C198.877 167.108 198.877 167.107 198.877 167.106C198.877 167.106 198.877 167.105 198.877 167.104C198.877 167.103 198.877 167.102 198.877 167.101C198.877 167.1 198.877 167.099 198.877 167.099C198.877 167.098 198.877 167.097 198.877 167.096C198.877 167.095 198.877 167.094 198.877 167.093C198.877 167.092 198.877 167.091 198.877 167.091C198.877 167.09 198.877 167.089 198.877 167.088C198.877 167.087 198.877 167.086 198.877 167.085C198.877 167.084 198.877 167.083 198.877 167.082C198.877 167.082 198.877 167.081 198.877 167.08C198.877 167.079 198.877 167.078 198.877 167.077C198.877 167.076 198.877 167.075 198.877 167.074C198.877 167.073 198.877 167.073 198.877 167.072C198.877 167.071 198.877 167.07 198.877 167.069C198.877 167.068 198.877 167.067 198.877 167.066C198.877 167.065 198.877 167.064 198.877 167.063C198.877 167.062 198.877 167.062 198.877 167.061C198.877 167.06 198.877 167.059 198.877 167.058C198.877 167.057 198.877 167.056 198.877 167.055C198.877 167.054 198.877 167.053 198.877 167.052C198.877 167.051 198.877 167.05 198.877 167.05C198.877 167.049 198.877 167.048 198.877 167.047C198.877 167.046 198.877 167.045 198.877 167.044C198.877 167.043 198.877 167.042 198.877 167.041C198.877 167.04 198.877 167.039 198.877 167.038C198.877 167.037 198.877 167.036 198.877 167.036C198.877 167.035 198.877 167.034 198.877 167.033C198.877 167.032 198.877 167.031 198.877 167.03C198.877 167.029 198.877 167.028 198.877 167.027C198.877 167.026 198.877 167.025 198.877 167.024C198.877 167.023 198.877 167.022 198.877 167.021C198.877 167.02 198.877 167.019 198.877 167.018C198.877 167.017 198.877 167.016 198.877 167.016C198.877 167.015 198.877 167.014 198.877 167.013C198.877 167.012 198.877 167.011 198.877 167.01C198.877 167.009 198.877 167.008 198.877 167.007C198.877 167.006 198.877 167.005 198.877 167.004C198.877 167.003 198.877 167.002 198.877 167.001C198.877 167 198.877 166.999 198.877 166.998C198.877 166.997 198.877 166.996 198.877 166.995C198.877 166.994 198.877 166.993 198.877 166.992C198.877 166.991 198.877 166.99 198.877 166.989C198.877 166.988 198.877 166.987 198.877 166.986C198.877 166.985 198.877 166.984 198.877 166.983C198.877 166.982 198.877 166.981 198.877 166.98C198.877 166.979 198.877 166.978 198.877 166.977C198.877 166.976 198.877 166.975 198.877 166.974C198.877 166.973 198.877 166.972 198.877 166.971C198.877 166.97 198.877 166.969 198.877 166.968C198.877 166.967 198.877 166.966 198.877 166.965C198.877 166.964 198.877 166.963 198.877 166.962C198.877 166.961 198.877 166.96 198.877 166.959C198.877 166.958 198.877 166.957 198.877 166.956C198.877 166.955 198.877 166.954 198.877 166.953C198.877 166.952 198.877 166.951 198.877 166.95C198.877 166.949 198.877 166.948 198.877 166.947C198.877 166.946 198.877 166.945 198.877 166.944C198.877 166.943 198.877 166.942 198.877 166.941C198.877 166.94 198.877 166.939 198.877 166.938C198.877 166.937 198.877 166.936 198.877 166.935C198.877 166.934 198.877 166.933 198.877 166.932C198.877 166.931 198.877 166.93 198.877 166.929C198.877 166.928 198.877 166.927 198.877 166.926C198.877 166.925 198.877 166.924 198.877 166.923C198.877 166.921 198.877 166.92 198.877 166.919C198.877 166.918 198.877 166.917 198.877 166.916C198.877 166.915 198.877 166.914 198.877 166.913C198.877 166.912 198.877 166.911 198.877 166.91C198.877 166.909 198.877 166.908 198.877 166.907C198.877 166.906 198.877 166.905 198.877 166.904C198.877 166.903 198.877 166.902 198.877 166.9C198.877 166.899 198.877 166.898 198.877 166.897C198.877 166.896 198.877 166.895 198.877 166.894C198.877 166.893 198.877 166.892 198.877 166.891C198.877 166.89 198.877 166.889 198.877 166.888C198.877 166.887 198.877 166.886 198.877 166.885C198.877 166.883 198.877 166.882 198.877 166.881C198.877 166.88 198.877 166.879 198.877 166.878C198.877 166.877 198.877 166.876 198.877 166.875C198.877 166.874 198.877 166.873 198.877 166.872C198.877 166.871 198.877 166.869 198.877 166.868C198.877 166.867 198.877 166.866 198.877 166.865C198.877 166.864 198.877 166.863 198.877 166.862C198.877 166.861 198.877 166.86 198.877 166.859C198.877 166.857 198.877 166.856 198.877 166.855C198.877 166.854 198.877 166.853 198.877 166.852C198.877 166.851 198.877 166.85 198.877 166.849C198.877 166.848 198.877 166.847 198.877 166.845C198.877 166.844 198.877 166.843 198.877 166.842C198.877 166.841 198.877 166.84 198.877 166.839C198.877 166.838 198.877 166.837 198.877 166.836C198.877 166.834 198.877 166.833 198.877 166.832C198.877 166.831 198.877 166.83 198.877 166.829C198.877 166.828 198.877 166.827 198.877 166.826C198.877 166.824 198.877 166.823 198.877 166.822C198.877 166.821 198.877 166.82 198.877 166.819C198.877 166.818 198.877 166.817 198.877 166.815C198.877 166.814 198.877 166.813 198.877 166.812C198.877 166.811 198.877 166.81 198.877 166.809C198.877 166.808 198.877 166.806 198.877 166.805C198.877 166.804 198.877 166.803 198.877 166.802C198.877 166.801 198.877 166.8 198.877 166.798C198.877 166.797 198.877 166.796 198.877 166.795C198.877 166.794 198.877 166.793 198.877 166.792C198.877 166.79 198.877 166.789 198.877 166.788C198.877 166.787 198.877 166.786 198.877 166.785C198.877 166.784 198.877 166.782 198.877 166.781C198.877 166.78 198.877 166.779 198.877 166.778C198.877 166.777 198.877 166.776 198.877 166.774C198.877 166.773 198.877 166.772 198.877 166.771C198.877 166.77 198.877 166.769 198.877 166.767C198.877 166.766 198.877 166.765 198.877 166.764C198.877 166.763 198.877 166.762 198.877 166.761C198.877 166.759 198.877 166.758 198.877 166.757C198.877 166.756 198.877 166.755 198.877 166.754C198.877 166.752 198.877 166.751 198.877 166.75C198.877 166.749 198.877 166.748 198.877 166.746C198.877 166.745 198.877 166.744 198.877 166.743C198.877 166.742 198.877 166.741 198.877 166.739C198.877 166.738 198.877 166.737 198.877 166.736C198.877 166.735 198.877 166.734 198.877 166.732C198.877 166.731 198.877 166.73 198.877 166.729C198.877 166.728 198.877 166.726 198.877 166.725C198.877 166.724 198.877 166.723 198.877 166.722C198.877 166.72 198.877 166.719 198.877 166.718C198.877 166.717 198.877 166.716 198.877 166.714C198.877 166.713 198.877 166.712 198.877 166.711C198.877 166.71 198.877 166.708 198.877 166.707C198.877 166.706 198.877 166.705 198.877 166.704C198.877 166.702 198.877 166.701 198.877 166.7C198.877 166.699 198.877 166.698 198.877 166.696C198.877 166.695 198.877 166.694 198.877 166.693C198.877 166.692 198.877 166.69 198.877 166.689C198.877 166.688 198.877 166.687 198.877 166.685C198.877 166.684 198.877 166.683 198.877 166.682C198.877 166.681 198.877 166.679 198.877 166.678C198.877 166.677 198.877 166.676 198.877 166.674C198.877 166.673 198.877 166.672 198.877 166.671C198.877 166.67 198.877 166.668 198.877 166.667C198.877 166.666 198.877 166.665 198.877 166.663C198.877 166.662 198.877 166.661 198.877 166.66C198.877 166.658 198.877 166.657 198.877 166.656C198.877 166.655 198.877 166.654 198.877 166.652C198.877 166.651 198.877 166.65 198.877 166.649C198.877 166.647 198.877 166.646 198.877 166.645C198.877 166.644 198.877 166.642 198.877 166.641C198.877 166.64 198.877 166.639 198.877 166.637C198.877 166.636 198.877 166.635 198.877 166.634C198.877 166.632 198.877 166.631 198.877 166.63C198.877 166.629 198.877 166.627 198.877 166.626C198.877 166.625 198.877 166.624 198.877 166.622C198.877 166.621 198.877 166.62 198.877 166.618C198.877 166.617 198.877 166.616 198.877 166.615C198.877 166.613 198.877 166.612 198.877 166.611C198.877 166.61 198.877 166.608 198.877 166.607C198.877 166.606 198.877 166.605 198.877 166.603C198.877 166.602 198.877 166.601 198.877 166.599C198.877 166.598 198.877 166.597 198.877 166.596C198.877 166.594 198.877 166.593 198.877 166.592C198.877 166.59 198.877 166.589 198.877 166.588C198.877 166.587 198.877 166.585 198.877 166.584C198.877 166.583 198.877 166.581 198.877 166.58C198.877 166.579 198.877 166.578 198.877 166.576C198.877 166.575 198.877 166.574 198.877 166.572C198.877 166.571 198.877 166.57 198.877 166.569C198.877 166.567 198.877 166.566 198.877 166.565C198.877 166.563 198.877 166.562 198.877 166.561C198.877 166.559 198.877 166.558 198.877 166.557C198.877 166.556 198.877 166.554 198.877 166.553C198.877 166.552 198.877 166.55 198.877 166.549C198.877 166.548 198.877 166.546 198.877 166.545C198.877 166.544 198.877 166.542 198.877 166.541C198.877 166.54 198.877 166.539 198.877 166.537C198.877 166.536 198.877 166.535 198.877 166.533C198.877 166.532 198.877 166.531 198.877 166.529C198.877 166.528 198.877 166.527 198.877 166.525C198.877 166.524 198.877 166.523 198.877 166.521C198.877 166.52 198.877 166.519 198.877 166.517C198.877 166.516 198.877 166.515 198.877 166.513C198.877 166.512 198.877 166.511 198.877 166.509C198.877 166.508 198.877 166.507 198.877 166.505C198.877 166.504 198.877 166.503 198.877 166.501C198.877 166.5 198.877 166.499 198.877 166.497C198.877 166.496 198.877 166.495 198.877 166.493C198.877 166.492 198.877 166.491 198.877 166.489C198.877 166.488 198.877 166.487 198.877 166.485C198.877 166.484 198.877 166.483 198.877 166.481C198.877 166.48 198.877 166.478 198.877 166.477C198.877 166.476 198.877 166.474 198.877 166.473C198.877 166.472 198.877 166.47 198.877 166.469C198.877 166.468 198.877 166.466 198.877 166.465C198.877 166.464 198.877 166.462 198.877 166.461C198.877 166.459 198.877 166.458 198.877 166.457C198.877 166.455 198.877 166.454 198.877 166.453C198.877 166.451 198.877 166.45 198.877 166.448C198.877 166.447 198.877 166.446 198.877 166.444C198.877 166.443 198.877 166.442 198.877 166.44C198.877 166.439 198.877 166.437 198.877 166.436C198.877 166.435 198.877 166.433 198.877 166.432C198.877 166.431 198.877 166.429 198.877 166.428C198.877 166.426 198.877 166.425 198.877 166.424C198.877 166.422 198.877 166.421 198.877 166.419C198.877 166.418 198.877 166.417 198.877 166.415C198.877 166.414 198.877 166.412 198.877 166.411C198.877 166.41 198.877 166.408 198.877 166.407C198.877 166.405 198.877 166.404 198.877 166.403C198.877 166.401 198.877 166.4 198.877 166.398C198.877 166.397 198.877 166.396 198.877 166.394C198.877 166.393 198.877 166.391 198.877 166.39C198.877 166.389 198.877 166.387 198.877 166.386C198.877 166.384 198.877 166.383 198.877 166.382C198.877 166.38 198.877 166.379 198.877 166.377C198.877 166.376 198.877 166.375 198.877 166.373C198.877 166.372 198.877 166.37 198.877 166.369C198.877 166.367 198.877 166.366 198.877 166.365C198.877 166.363 198.877 166.362 198.877 166.36C198.877 166.359 198.877 166.357 198.877 166.356C198.877 166.355 198.877 166.353 198.877 166.352C198.877 166.35 198.877 166.349 198.877 166.347C198.877 166.346 198.877 166.345 198.877 166.343C198.877 166.342 198.877 166.34 198.877 166.339C198.877 166.337 198.877 166.336 198.877 166.334C198.877 166.333 198.877 166.332 198.877 166.33C198.877 166.329 198.877 166.327 198.877 166.326C198.877 166.324 198.877 166.323 198.877 166.321C198.877 166.32 198.877 166.319 198.877 166.317C198.877 166.316 198.877 166.314 198.877 166.313C198.877 166.311 198.877 166.31 198.877 166.308C198.877 166.307 198.877 166.305 198.877 166.304C198.877 166.303 198.877 166.301 198.877 166.3C198.877 166.298 198.877 166.297 198.877 166.295C198.877 166.294 198.877 166.292 198.877 166.291C198.877 166.289 198.877 166.288 198.877 166.286C198.877 166.285 198.877 166.284 198.877 166.282C198.877 166.281 198.877 166.279 198.877 166.278C198.877 166.276 198.877 166.275 198.877 166.273C198.877 166.272 198.877 166.27 198.877 166.269C198.877 166.267 198.877 166.266 198.877 166.264C198.877 166.263 198.877 166.261 198.877 166.26C198.877 166.258 198.877 166.257 198.877 166.255C198.877 166.254 198.877 166.252 198.877 166.251C198.877 166.249 198.877 166.248 198.877 166.246C198.877 166.245 198.877 166.243 198.877 166.242C198.877 166.24 198.877 166.239 198.877 166.238C198.877 166.236 198.877 166.234 198.877 166.233C198.877 166.232 198.877 166.23 198.877 166.229C198.877 166.227 198.877 166.225 198.877 166.224C198.877 166.222 198.877 166.221 198.877 166.219C198.877 166.218 198.877 166.216 198.877 166.215C198.877 166.213 198.877 166.212 198.877 166.21C198.877 166.209 198.877 166.207 198.877 166.206C198.877 166.204 198.877 166.203 198.877 166.201C198.877 166.2 198.877 166.198 198.877 166.197C198.877 166.195 198.877 166.194 198.877 166.192C198.877 166.191 198.877 166.189 198.877 166.188C198.877 166.186 198.877 166.185 198.877 166.183C198.877 166.182 198.877 166.18 198.877 166.178C198.877 166.177 198.877 166.175 198.877 166.174C198.877 166.172 198.877 166.171 198.877 166.169C198.877 166.168 198.877 166.166 198.877 166.165C198.877 166.163 198.877 166.162 198.877 166.16C198.877 166.158 198.877 166.157 198.877 166.155C198.877 166.154 198.877 166.152 198.877 166.151C198.877 166.149 198.877 166.148 198.877 166.146C198.877 166.145 198.877 166.143 198.877 166.141C198.877 166.14 198.877 166.138 198.877 166.137C198.877 166.135 198.877 166.134 198.877 166.132C198.877 166.131 198.877 166.129 198.877 166.127C198.877 166.126 198.877 166.124 198.877 166.123C198.877 166.121 198.877 166.12 198.877 166.118C198.877 166.117 198.877 166.115 198.877 166.113C198.877 166.112 198.877 166.11 198.877 166.109C198.877 166.107 198.877 166.106 198.877 166.104C198.877 166.102 198.877 166.101 198.877 166.099C198.877 166.098 198.877 166.096 198.877 166.095C198.877 166.093 198.877 166.091 198.877 166.09C198.877 166.088 198.877 166.087 198.877 166.085C198.877 166.084 198.877 166.082 198.877 166.08C198.877 166.079 198.877 166.077 198.877 166.076C198.877 166.074 198.877 166.072 198.877 166.071C198.877 166.069 198.877 166.068 198.877 166.066C198.877 166.064 198.877 166.063 198.877 166.061C198.877 166.06 198.877 166.058 198.877 166.057C198.877 166.055 198.877 166.053 198.877 166.052C198.877 166.05 198.877 166.049 198.877 166.047C198.877 166.045 198.877 166.044 198.877 166.042C198.877 166.04 198.877 166.039 198.877 166.037C198.877 166.036 198.877 166.034 198.877 166.032C198.877 166.031 198.877 166.029 198.877 166.028C198.877 166.026 198.877 166.024 198.877 166.023C198.877 166.021 198.877 166.02 198.877 166.018C198.877 166.016 198.877 166.015 198.877 166.013C198.877 166.011 198.877 166.01 198.877 166.008C198.877 166.007 198.877 166.005 198.877 166.003C198.877 166.002 198.877 166 198.877 165.998C198.877 165.997 198.877 165.995 198.877 165.994C198.877 165.992 198.877 165.99 198.877 165.989C198.877 165.987 198.877 165.985 198.877 165.984C198.877 165.982 198.877 165.981 198.877 165.979C198.877 165.977 198.877 165.976 198.877 165.974C198.877 165.972 198.877 165.971 198.877 165.969C198.877 165.967 198.877 165.966 198.877 165.964C198.877 165.962 198.877 165.961 198.877 165.959C198.877 165.958 198.877 165.956 198.877 165.954C198.877 165.953 198.877 165.951 198.877 165.949C198.877 165.948 198.877 165.946 198.877 165.944C198.877 165.943 198.877 165.941 198.877 165.939C198.877 165.938 198.877 165.936 198.877 165.934C198.877 165.933 198.877 165.931 198.877 165.929C198.877 165.928 198.877 165.926 198.877 165.924C198.877 165.923 198.877 165.921 198.877 165.919C198.877 165.918 198.877 165.916 198.877 165.914C198.877 165.913 198.877 165.911 198.877 165.909C198.877 165.908 198.877 165.906 198.877 165.904C198.877 165.903 198.877 165.901 198.877 165.899C198.877 165.898 198.877 165.896 198.877 165.894C198.877 165.893 198.877 165.891 198.877 165.889C198.877 165.888 198.877 165.886 198.877 165.884C198.877 165.883 198.877 165.881 198.877 165.879C198.877 165.877 198.877 165.876 198.877 165.874C198.877 165.872 198.877 165.871 198.877 165.869C198.877 165.867 198.877 165.866 198.877 165.864C198.877 165.862 198.877 165.861 198.877 165.859C198.877 165.857 198.877 165.855 198.877 165.854C198.877 165.852 198.877 165.85 198.877 165.849C198.877 165.847 198.877 165.845 198.877 165.843C198.877 165.842 198.877 165.84 198.877 165.838C198.877 165.837 198.877 165.835 198.877 165.833C198.877 165.832 198.877 165.83 198.877 165.828C198.877 165.826 198.877 165.825 198.877 165.823C198.877 165.821 198.877 165.82 198.877 165.818C198.877 165.816 198.877 165.814 198.877 165.813C198.877 165.811 198.877 165.809 198.877 165.807C198.877 165.806 198.877 165.804 198.877 165.802C198.877 165.801 198.877 165.799 198.877 165.797C198.877 165.795 198.877 165.794 198.877 165.792C198.877 165.79 198.877 165.788 198.877 165.787C198.877 165.785 198.877 165.783 198.877 165.782C198.877 165.78 198.877 165.778 198.877 165.776C198.877 165.775 198.877 165.773 198.877 165.771C198.877 165.769 198.877 165.768 198.877 165.766C198.877 165.764 198.877 165.762 198.877 165.761C198.877 165.759 198.877 165.757 198.877 165.755C198.877 165.754 198.877 165.752 198.877 165.75C198.877 165.748 198.877 165.747 198.877 165.745C198.877 165.743 198.877 165.741 198.877 165.74C198.877 165.738 198.877 165.736 198.877 165.734C198.877 165.733 198.877 165.731 198.877 165.729C198.877 165.727 198.877 165.726 198.877 165.724C198.877 165.722 198.877 165.72 198.877 165.718C198.877 165.717 198.877 165.715 198.877 165.713C198.877 165.711 198.877 165.71 198.877 165.708C198.877 165.706 198.877 165.704 198.877 165.703C198.877 165.701 198.877 165.699 198.877 165.697C198.877 165.695 198.877 165.694 198.877 165.692C198.877 165.69 198.877 165.688 198.877 165.687C198.877 165.685 198.877 165.683 198.877 165.681C198.877 165.679 198.877 165.678 198.877 165.676C198.877 165.674 198.877 165.672 198.877 165.67C198.877 165.669 198.877 165.667 198.877 165.665C198.877 165.663 198.877 165.661 198.877 165.66C198.877 165.658 198.877 165.656 198.877 165.654C198.877 165.653 198.877 165.651 198.877 165.649C198.877 165.647 198.877 165.645 198.877 165.644C198.877 165.642 198.877 165.64 198.877 165.638C198.877 165.636 198.877 165.634 198.877 165.633C198.877 165.631 198.877 165.629 198.877 165.627C198.877 165.625 198.877 165.624 198.877 165.622C198.877 165.62 198.877 165.618 198.877 165.616C198.877 165.615 198.877 165.613 198.877 165.611C198.877 165.609 198.877 165.607 198.877 165.605C198.877 165.604 198.877 165.602 198.877 165.6H188.877ZM188.877 167.4H178.877C178.877 176.858 181.042 186.206 188.001 192.446L194.677 185L201.352 177.554C200.578 176.861 198.877 174.475 198.877 167.4H188.877ZM194.677 185L188.127 192.557C194.379 197.975 202.248 200.2 210.677 200.2V190.2V180.2C205.772 180.2 202.974 178.958 201.226 177.443L194.677 185ZM210.677 190.2V200.2C215.757 200.2 220.702 199.195 225.45 197.261L221.677 188L217.904 178.739C215.451 179.738 213.063 180.2 210.677 180.2V190.2ZM221.677 188L225.333 197.308C231.444 194.907 236.109 190.516 239.451 184.945L230.877 179.8L222.302 174.655C220.844 177.084 219.376 178.16 218.02 178.692L221.677 188ZM230.877 179.8L239.325 185.151C243.237 178.973 244.725 171.224 244.875 162.982L234.877 162.8L224.878 162.618C224.761 169.043 223.583 172.627 222.428 174.449L230.877 179.8ZM234.877 162.8L244.875 162.994L246.675 70.1939L236.677 70L226.678 69.8061L224.878 162.606L234.877 162.8ZM236.677 70L237.176 79.9875L257.176 78.9875L256.677 69L256.177 59.0125L236.177 60.0125L236.677 70ZM256.677 69L246.697 68.363L240.697 162.363L250.677 163L260.656 163.637L266.656 69.637L256.677 69ZM250.677 163L240.694 162.404C240.217 170.406 238.639 176.208 236.459 180.283L245.277 185L254.094 189.717C258.048 182.325 260.07 173.461 260.659 163.596L250.677 163ZM245.277 185L236.506 180.197C234.111 184.569 231.299 187.596 228.185 189.643L233.677 198L239.168 206.357C245.387 202.27 250.309 196.631 254.048 189.803L245.277 185ZM233.677 198L228.355 189.534C224.703 191.829 220.84 193.369 216.715 194.194L218.677 204L220.638 213.806C227.18 212.497 233.316 210.038 238.998 206.466L233.677 198ZM218.677 204L216.481 194.244C211.832 195.29 207.301 195.8 202.877 195.8V205.8V215.8C208.852 215.8 214.855 215.11 220.872 213.756L218.677 204ZM343.534 204L334.382 208.029L345.178 213.864L343.534 204ZM300.134 105.4L309.287 101.371L300.134 95.4V105.4ZM298.934 105.4V95.4L288.94 105.065L298.934 105.4ZM295.734 201L296.234 210.988L305.729 201.335L295.734 201ZM275.734 202L265.76 201.284L276.234 211.988L275.734 202ZM285.134 71L284.721 61.0085L275.16 70.2843L285.134 71ZM333.534 69L343.317 66.9244L333.122 59.0085L333.534 69ZM353.734 164.2L343.952 166.276L363.451 166.564L353.734 164.2ZM377.134 68L377.753 58.0191L367.418 65.6365L377.134 68ZM425.534 71L435.524 70.5389L426.153 61.0191L425.534 71ZM431.534 201L433.178 210.864L441.524 200.539L431.534 201ZM413.534 204L403.877 206.596L415.178 213.864L413.534 204ZM384.934 97.6L394.592 95.0042L384.934 87.6V97.6ZM383.334 97.6V87.6L373.549 95.537L383.334 97.6ZM361.534 201L363.178 210.864L371.319 203.063L361.534 201ZM343.534 204L352.687 199.971L309.287 101.371L300.134 105.4L290.982 109.429L334.382 208.029L343.534 204ZM300.134 105.4V95.4H298.934V105.4V115.4H300.134V105.4ZM298.934 105.4L288.94 105.065L285.74 200.665L295.734 201L305.729 201.335L308.929 105.735L298.934 105.4ZM295.734 201L295.235 191.012L275.235 192.012L275.734 202L276.234 211.988L296.234 210.988L295.734 201ZM275.734 202L285.709 202.716L295.109 71.7157L285.134 71L275.16 70.2843L265.76 201.284L275.734 202ZM285.134 71L285.547 80.9915L333.947 78.9915L333.534 69L333.122 59.0085L284.721 61.0085L285.134 71ZM333.534 69L323.752 71.0756L343.952 166.276L353.734 164.2L363.517 162.124L343.317 66.9244L333.534 69ZM353.734 164.2L363.451 166.564L386.851 70.3635L377.134 68L367.418 65.6365L344.018 161.836L353.734 164.2ZM377.134 68L376.516 77.9808L424.916 80.9808L425.534 71L426.153 61.0191L377.753 58.0191L377.134 68ZM425.534 71L415.545 71.461L421.545 201.461L431.534 201L441.524 200.539L435.524 70.5389L425.534 71ZM431.534 201L429.89 191.136L411.89 194.136L413.534 204L415.178 213.864L433.178 210.864L431.534 201ZM413.534 204L423.192 201.404L394.592 95.0042L384.934 97.6L375.277 100.196L403.877 206.596L413.534 204ZM384.934 97.6V87.6H383.334V97.6V107.6H384.934V97.6ZM383.334 97.6L373.549 95.537L351.749 198.937L361.534 201L371.319 203.063L393.119 99.663L383.334 97.6ZM361.534 201L359.89 191.136L341.89 194.136L343.534 204L345.178 213.864L363.178 210.864L361.534 201ZM461.625 202.8L451.65 203.511L461.855 212.797L461.625 202.8ZM452.225 71L451.908 61.005L442.25 71.7114L452.225 71ZM540.425 68.2L550.415 68.6473L540.108 58.205L540.425 68.2ZM539.825 81.6L541.002 91.5305L549.815 82.0473L539.825 81.6ZM497.625 86.6L496.448 76.6695L487.703 85.3537L497.625 86.6ZM492.425 128L482.503 126.754L492.519 138L492.425 128ZM535.025 127.6L545.01 127.045L534.931 117.6L535.025 127.6ZM536.025 145.6L535.275 155.572L546.01 145.045L536.025 145.6ZM490.825 142.2L491.575 132.228L480.897 140.998L490.825 142.2ZM485.425 186.8L475.497 185.598L486.577 196.733L485.425 186.8ZM540.625 180.4L550.617 180.788L539.473 170.467L540.625 180.4ZM539.825 201L540.055 210.997L549.817 201.388L539.825 201ZM461.625 202.8L471.6 202.089L462.2 70.2886L452.225 71L442.25 71.7114L451.65 203.511L461.625 202.8ZM452.225 71L452.542 80.995L540.742 78.195L540.425 68.2L540.108 58.205L451.908 61.005L452.225 71ZM540.425 68.2L530.435 67.7527L529.835 81.1527L539.825 81.6L549.815 82.0473L550.415 68.6473L540.425 68.2ZM539.825 81.6L538.648 71.6695L496.448 76.6695L497.625 86.6L498.802 96.5305L541.002 91.5305L539.825 81.6ZM497.625 86.6L487.703 85.3537L482.503 126.754L492.425 128L502.347 129.246L507.547 87.8462L497.625 86.6ZM492.425 128L492.519 138L535.119 137.6L535.025 127.6L534.931 117.6L492.331 118L492.425 128ZM535.025 127.6L525.04 128.155L526.04 146.155L536.025 145.6L546.01 145.045L545.01 127.045L535.025 127.6ZM536.025 145.6L536.775 135.628L491.575 132.228L490.825 142.2L490.075 152.172L535.275 155.572L536.025 145.6ZM490.825 142.2L480.897 140.998L475.497 185.598L485.425 186.8L495.353 188.002L500.753 143.402L490.825 142.2ZM485.425 186.8L486.577 196.733L541.777 190.333L540.625 180.4L539.473 170.467L484.273 176.867L485.425 186.8ZM540.625 180.4L530.633 180.012L529.833 200.612L539.825 201L549.817 201.388L550.617 180.788L540.625 180.4ZM539.825 201L539.595 191.003L461.395 192.803L461.625 202.8L461.855 212.797L540.055 210.997L539.825 201ZM642.519 204L633.961 209.173L644.163 213.864L642.519 204ZM577.719 96.8L586.277 91.6269L577.719 86.8V96.8ZM576.119 96.8V86.8L566.119 96.8576L576.119 96.8ZM576.719 201L577.218 210.988L586.719 200.942L576.719 201ZM556.719 202L546.727 201.588L557.218 211.988L556.719 202ZM562.119 71L561.5 61.0191L552.127 70.5881L562.119 71ZM610.519 68L619.955 64.6906L609.9 58.0191L610.519 68ZM645.519 167.8L636.082 171.109L645.519 177.8V167.8ZM647.119 167.8V177.8L657.117 168.004L647.119 167.8ZM649.119 70L648.619 60.0125L639.121 69.7955L649.119 70ZM669.119 69L679.098 69.6501L668.619 59.0125L669.119 69ZM660.519 201L662.163 210.864L670.498 201.65L660.519 201ZM642.519 204L651.077 198.827L586.277 91.6269L577.719 96.8L569.161 101.973L633.961 209.173L642.519 204ZM577.719 96.8V86.8H576.119V96.8V106.8H577.719V96.8ZM576.119 96.8L566.119 96.8576L566.719 201.058L576.719 201L586.719 200.942L586.119 96.7424L576.119 96.8ZM576.719 201L576.219 191.012L556.219 192.012L556.719 202L557.218 211.988L577.218 210.988L576.719 201ZM556.719 202L566.71 202.412L572.11 71.4119L562.119 71L552.127 70.5881L546.727 201.588L556.719 202ZM562.119 71L562.737 80.9808L611.137 77.9808L610.519 68L609.9 58.0191L561.5 61.0191L562.119 71ZM610.519 68L601.082 71.3094L636.082 171.109L645.519 167.8L654.955 164.491L619.955 64.6906L610.519 68ZM645.519 167.8V177.8H647.119V167.8V157.8H645.519V167.8ZM647.119 167.8L657.117 168.004L659.117 70.2045L649.119 70L639.121 69.7955L637.121 167.596L647.119 167.8ZM649.119 70L649.618 79.9875L669.618 78.9875L669.119 69L668.619 59.0125L648.619 60.0125L649.119 70ZM669.119 69L659.14 68.3499L650.54 200.35L660.519 201L670.498 201.65L679.098 69.6501L669.119 69ZM660.519 201L658.875 191.136L640.875 194.136L642.519 204L644.163 213.864L662.163 210.864L660.519 201Z" fill="url(#paint0_linear_59_450)" mask="url(#path-1-outside-1_59_450)"/>
</g>
<rect x="5" y="235" width="679" height="77" fill="url(#paint1_linear_59_450)"/>
<rect x="5" y="235" width="679" height="77" stroke="url(#paint2_linear_59_450)" stroke-width="10" stroke-linejoin="bevel"/>
<path d="M237.839 288.6C236.746 288.6 235.706 288.427 234.719 288.08C233.733 287.707 232.853 287.24 232.079 286.68C231.333 286.12 230.733 285.533 230.279 284.92C229.853 284.307 229.639 283.747 229.639 283.24C229.639 282.387 229.666 281.587 229.719 280.84C229.773 280.093 229.879 279.267 230.039 278.36L233.999 279.08C233.893 279.827 233.813 280.573 233.759 281.32C233.706 282.067 233.679 282.907 233.679 283.84C233.679 284.347 233.773 284.707 233.959 284.92C234.173 285.133 234.519 285.24 234.999 285.24C236.093 285.24 236.906 284.96 237.439 284.4C237.999 283.84 238.279 282.693 238.279 280.96C238.279 280.293 238.266 279.56 238.239 278.76C238.213 277.96 238.199 276.893 238.199 275.56V273.44C238.199 272.16 238.239 270.907 238.319 269.68C238.426 268.453 238.586 267.48 238.799 266.76H236.119L234.079 264.12L234.359 263.44H240.719L242.959 266.56C242.479 268.267 242.239 270.627 242.239 273.64V275.32C242.239 276.973 242.253 278.4 242.279 279.6C242.306 280.8 242.319 281.907 242.319 282.92C242.319 286.707 240.826 288.6 237.839 288.6ZM262.39 288.88C261.777 288.64 261.217 288.387 260.71 288.12C260.203 287.853 259.723 287.56 259.27 287.24C258.71 287.693 258.043 288.067 257.27 288.36C256.497 288.653 255.777 288.8 255.11 288.8C254.63 288.8 253.977 288.64 253.15 288.32C252.323 288 251.483 287.573 250.63 287.04C249.777 286.507 249.057 285.933 248.47 285.32C247.883 284.68 247.59 284.067 247.59 283.48C247.59 283.08 247.617 282.44 247.67 281.56C247.75 280.653 247.79 279.627 247.79 278.48V276.16C247.79 275.467 247.817 274.827 247.87 274.24C247.95 273.627 248.07 273.093 248.23 272.64H246.91L244.79 269.92L245.07 269.24H250.19L252.51 272.36C252.19 272.787 251.977 273.32 251.87 273.96C251.79 274.6 251.75 275.413 251.75 276.4V278.76C251.75 280.52 251.723 281.8 251.67 282.6C251.643 283.4 251.63 283.96 251.63 284.28C251.63 285.027 252.083 285.4 252.99 285.4C253.657 285.4 254.297 285.28 254.91 285.04C255.55 284.773 256.07 284.4 256.47 283.92C256.897 283.413 257.11 282.813 257.11 282.12V276.16C257.11 275.467 257.137 274.827 257.19 274.24C257.27 273.627 257.39 273.093 257.55 272.64H256.23L254.11 269.92L254.39 269.24H259.51L261.83 272.36C261.51 272.787 261.297 273.32 261.19 273.96C261.11 274.6 261.07 275.413 261.07 276.4V280.68C261.07 282.147 261.043 283.253 260.99 284C260.937 284.747 260.91 285.293 260.91 285.64C260.91 286.067 261.057 286.453 261.35 286.8C261.67 287.12 262.19 287.467 262.91 287.84L262.39 288.88ZM274.481 288.72C273.841 288.72 273.054 288.56 272.121 288.24C271.187 287.893 270.254 287.453 269.321 286.92C268.414 286.36 267.654 285.76 267.041 285.12C266.427 284.453 266.121 283.8 266.121 283.16C266.121 282.52 266.161 281.413 266.241 279.84C266.347 278.267 266.401 276.387 266.401 274.2C266.401 270.733 268.294 269 272.081 269C272.667 269 273.347 269.187 274.121 269.56C274.894 269.907 275.641 270.373 276.361 270.96C277.081 271.52 277.681 272.107 278.161 272.72C278.641 273.333 278.881 273.907 278.881 274.44V277.72C278.881 279.88 277.681 280.96 275.281 280.96C274.534 280.96 273.681 280.92 272.721 280.84C271.761 280.733 270.907 280.613 270.161 280.48C270.134 281.36 270.107 282.16 270.081 282.88C270.081 283.573 270.081 283.973 270.081 284.08C270.081 284.507 270.187 284.813 270.401 285C270.614 285.187 271.001 285.28 271.561 285.28C272.387 285.28 273.281 285.16 274.241 284.92C275.227 284.653 276.107 284.267 276.881 283.76H277.481L279.641 287.04C279.134 287.52 278.374 287.92 277.361 288.24C276.374 288.56 275.414 288.72 274.481 288.72ZM270.281 275.48C270.281 275.693 270.267 276.013 270.241 276.44C270.241 276.867 270.241 277.347 270.241 277.88C271.014 277.96 271.907 278 272.921 278C273.694 278 274.227 277.813 274.521 277.44C274.841 277.04 275.001 276.44 275.001 275.64V273.48C275.001 273.187 274.921 272.933 274.761 272.72C274.601 272.507 274.254 272.4 273.721 272.4C272.654 272.4 271.814 272.627 271.201 273.08C270.587 273.507 270.281 274.307 270.281 275.48ZM289.943 296.68C287.889 296.68 286.236 296.107 284.983 294.96C283.729 293.813 282.743 291.92 282.023 289.28L283.343 288.88C283.823 290.107 284.436 291.04 285.183 291.68C285.929 292.32 286.996 292.64 288.383 292.64C289.449 292.64 290.423 292.507 291.303 292.24C292.183 291.973 292.889 291.6 293.423 291.12C293.956 290.667 294.223 290.173 294.223 289.64C294.223 289.16 293.996 288.92 293.543 288.92C293.143 288.92 292.649 288.987 292.063 289.12C291.476 289.253 290.876 289.387 290.263 289.52C289.649 289.68 289.076 289.76 288.543 289.76C287.983 289.76 287.396 289.547 286.783 289.12C286.169 288.693 285.583 288.173 285.023 287.56C284.489 286.92 284.049 286.28 283.703 285.64C283.383 284.973 283.223 284.413 283.223 283.96C283.223 283.107 283.476 282.413 283.983 281.88C284.516 281.347 285.156 280.933 285.903 280.64C284.063 279.787 283.143 278.373 283.143 276.4V274.52C283.143 272.867 283.476 271.6 284.143 270.72C284.836 269.813 286.009 269.293 287.663 269.16L290.503 268.92C291.436 268.84 292.116 268.64 292.543 268.32C292.969 268 293.249 267.48 293.383 266.76L293.863 266.48L296.623 268.08C296.463 269.28 296.076 270.187 295.463 270.8C294.876 271.413 294.116 271.827 293.183 272.04C293.903 272.413 294.476 272.933 294.903 273.6C295.356 274.267 295.583 275 295.583 275.8V277.68C295.583 278.907 295.463 279.893 295.223 280.64C294.983 281.387 294.516 281.96 293.823 282.36C293.156 282.76 292.156 283.093 290.823 283.36L289.103 283.68C287.983 283.867 287.223 284.12 286.823 284.44C286.423 284.733 286.223 285.08 286.223 285.48C286.223 285.907 286.489 286.12 287.023 286.12C287.636 286.12 288.289 286.04 288.983 285.88C289.703 285.72 290.383 285.56 291.023 285.4C291.689 285.24 292.236 285.16 292.663 285.16C293.196 285.16 293.703 285.413 294.183 285.92C294.689 286.4 295.129 287.013 295.503 287.76C295.903 288.48 296.209 289.213 296.423 289.96C296.663 290.733 296.783 291.387 296.783 291.92C296.783 293.44 296.129 294.613 294.823 295.44C293.543 296.267 291.916 296.68 289.943 296.68ZM286.863 277.28C286.863 278 286.956 278.613 287.143 279.12C287.356 279.6 287.689 279.92 288.143 280.08L289.423 279.88C290.196 279.747 290.823 279.493 291.303 279.12C291.783 278.747 292.023 277.947 292.023 276.72V275.4C292.023 274.307 291.929 273.533 291.743 273.08C291.556 272.6 291.249 272.32 290.823 272.24L289.343 272.36C288.356 272.44 287.689 272.733 287.343 273.24C287.023 273.747 286.863 274.6 286.863 275.8V277.28ZM307.809 288.8C307.169 288.8 306.395 288.64 305.489 288.32C304.582 288 303.702 287.573 302.849 287.04C301.995 286.507 301.275 285.893 300.689 285.2C300.129 284.507 299.849 283.8 299.849 283.08C299.849 282.76 299.889 281.827 299.969 280.28C300.075 278.733 300.129 276.8 300.129 274.48C300.129 272.613 300.675 271.24 301.769 270.36C302.862 269.48 304.502 269.04 306.689 269.04C307.329 269.04 308.035 269.24 308.809 269.64C309.609 270.04 310.369 270.56 311.089 271.2C311.809 271.84 312.395 272.52 312.849 273.24C313.329 273.933 313.569 274.587 313.569 275.2C313.569 276.213 313.542 277.307 313.489 278.48C313.462 279.653 313.449 281.16 313.449 283C313.449 284.707 312.982 286.107 312.049 287.2C311.115 288.267 309.702 288.8 307.809 288.8ZM305.249 285.4C306.715 285.4 307.782 285.093 308.449 284.48C309.142 283.867 309.489 282.96 309.489 281.76C309.489 280.907 309.502 279.947 309.529 278.88C309.555 277.787 309.582 276.787 309.609 275.88C309.635 274.947 309.649 274.293 309.649 273.92C309.649 273.467 309.569 273.133 309.409 272.92C309.249 272.68 308.929 272.56 308.449 272.56C307.009 272.56 305.902 272.813 305.129 273.32C304.382 273.8 304.009 274.72 304.009 276.08C304.009 278.64 303.982 280.573 303.929 281.88C303.875 283.16 303.849 284.027 303.849 284.48C303.849 285.093 304.315 285.4 305.249 285.4ZM339.004 288.92C338.39 288.733 337.844 288.533 337.364 288.32C336.91 288.107 336.404 287.84 335.844 287.52C335.31 287.973 334.764 288.307 334.204 288.52C333.67 288.707 332.99 288.8 332.164 288.8C331.524 288.8 330.75 288.64 329.844 288.32C328.964 288 328.084 287.573 327.204 287.04C326.35 286.507 325.63 285.893 325.044 285.2C324.484 284.507 324.204 283.8 324.204 283.08C324.204 282.787 324.244 281.947 324.324 280.56C324.404 279.147 324.444 277.107 324.444 274.44C324.444 272.547 324.964 271.187 326.004 270.36C327.044 269.533 328.497 269.12 330.364 269.12C330.924 269.12 331.51 269.227 332.124 269.44C332.764 269.653 333.337 269.907 333.844 270.2C333.87 268.787 333.937 267.493 334.044 266.32C334.15 265.147 334.297 264.187 334.484 263.44H332.764L330.564 260.84L330.844 260.2H336.044L338.404 263.24C338.217 264.28 338.07 265.467 337.964 266.8C337.857 268.107 337.804 269.44 337.804 270.8V276.84C337.804 278.147 337.777 279.493 337.724 280.88C337.67 282.24 337.657 283.693 337.684 285.24C337.71 286.04 337.844 286.587 338.084 286.88C338.324 287.173 338.83 287.48 339.604 287.8L339.004 288.92ZM328.204 284.16C328.204 284.613 328.31 284.933 328.524 285.12C328.764 285.307 329.124 285.4 329.604 285.4C331.044 285.4 332.11 285.067 332.804 284.4C333.497 283.733 333.844 282.8 333.844 281.6V272.8C333.337 272.693 332.79 272.64 332.204 272.64C331.084 272.64 330.164 272.88 329.444 273.36C328.75 273.84 328.39 274.747 328.364 276.08L328.204 284.16ZM351.223 288.72C350.583 288.72 349.796 288.56 348.863 288.24C347.929 287.893 346.996 287.453 346.063 286.92C345.156 286.36 344.396 285.76 343.783 285.12C343.169 284.453 342.863 283.8 342.863 283.16C342.863 282.52 342.903 281.413 342.983 279.84C343.089 278.267 343.143 276.387 343.143 274.2C343.143 270.733 345.036 269 348.823 269C349.409 269 350.089 269.187 350.863 269.56C351.636 269.907 352.383 270.373 353.103 270.96C353.823 271.52 354.423 272.107 354.903 272.72C355.383 273.333 355.623 273.907 355.623 274.44V277.72C355.623 279.88 354.423 280.96 352.023 280.96C351.276 280.96 350.423 280.92 349.463 280.84C348.503 280.733 347.649 280.613 346.903 280.48C346.876 281.36 346.849 282.16 346.823 282.88C346.823 283.573 346.823 283.973 346.823 284.08C346.823 284.507 346.929 284.813 347.143 285C347.356 285.187 347.743 285.28 348.303 285.28C349.129 285.28 350.023 285.16 350.983 284.92C351.969 284.653 352.849 284.267 353.623 283.76H354.223L356.383 287.04C355.876 287.52 355.116 287.92 354.103 288.24C353.116 288.56 352.156 288.72 351.223 288.72ZM347.023 275.48C347.023 275.693 347.009 276.013 346.983 276.44C346.983 276.867 346.983 277.347 346.983 277.88C347.756 277.96 348.649 278 349.663 278C350.436 278 350.969 277.813 351.263 277.44C351.583 277.04 351.743 276.44 351.743 275.64V273.48C351.743 273.187 351.663 272.933 351.503 272.72C351.343 272.507 350.996 272.4 350.463 272.4C349.396 272.4 348.556 272.627 347.943 273.08C347.329 273.507 347.023 274.307 347.023 275.48ZM376.4 282.8L379.76 284.96C379.227 286.213 378.454 287.173 377.44 287.84C376.454 288.507 375.334 288.84 374.08 288.84C373.28 288.84 372.427 288.667 371.52 288.32C370.614 287.947 369.76 287.48 368.96 286.92C368.16 286.36 367.494 285.773 366.96 285.16C366.454 284.547 366.2 283.973 366.2 283.44C366.2 283.093 366.2 282.56 366.2 281.84C366.227 281.12 366.24 280.373 366.24 279.6C366.267 278.8 366.28 278.133 366.28 277.6V274.32C366.28 272.56 366.814 271.227 367.88 270.32C368.947 269.387 370.374 268.92 372.16 268.92C372.72 268.92 373.374 269.093 374.12 269.44C374.867 269.76 375.6 270.2 376.32 270.76C377.04 271.293 377.64 271.893 378.12 272.56C378.6 273.2 378.84 273.84 378.84 274.48C378.84 275.173 378.814 275.787 378.76 276.32C378.707 276.827 378.64 277.293 378.56 277.72L374.44 276.92C374.654 275.64 374.76 274.52 374.76 273.56C374.76 273.107 374.667 272.8 374.48 272.64C374.32 272.48 374.054 272.4 373.68 272.4C371.387 272.4 370.24 273.547 370.24 275.84V279.04C370.24 280.747 370.214 282 370.16 282.8C370.134 283.573 370.12 284.187 370.12 284.64C370.12 284.933 370.254 285.16 370.52 285.32C370.787 285.48 371.12 285.56 371.52 285.56C372.507 285.56 373.347 285.36 374.04 284.96C374.734 284.533 375.36 283.853 375.92 282.92L376.4 282.8ZM397.148 288.8C396.508 288.587 395.921 288.373 395.388 288.16C394.855 287.92 394.348 287.667 393.868 287.4C393.495 287.773 393.041 288.08 392.508 288.32C392.001 288.533 391.415 288.64 390.748 288.64C390.295 288.64 389.628 288.493 388.748 288.2C387.895 287.907 387.015 287.533 386.108 287.08C385.201 286.6 384.428 286.08 383.788 285.52C383.175 284.933 382.868 284.36 382.868 283.8C382.868 283.107 382.868 282.493 382.868 281.96C382.895 281.4 382.908 281.067 382.908 280.96C382.908 279.387 383.308 278.28 384.108 277.64C384.935 276.973 386.081 276.64 387.548 276.64C388.295 276.64 389.095 276.693 389.948 276.8C390.801 276.907 391.495 277.027 392.028 277.16C392.055 276.413 392.068 275.707 392.068 275.04C392.095 274.347 392.108 273.827 392.108 273.48C392.108 273.187 392.028 272.973 391.868 272.84C391.708 272.707 391.415 272.64 390.988 272.64C389.948 272.64 389.068 272.72 388.348 272.88C387.628 273.04 386.948 273.307 386.308 273.68H385.548L382.948 269.88L383.268 269.24H389.948C390.481 269.24 391.081 269.453 391.748 269.88C392.441 270.28 393.121 270.787 393.788 271.4C394.455 272.013 395.001 272.64 395.428 273.28C395.855 273.92 396.068 274.48 396.068 274.96C396.068 275.84 396.041 276.88 395.988 278.08C395.935 279.28 395.881 280.507 395.828 281.76C395.775 282.987 395.748 284.107 395.748 285.12C395.748 285.92 395.881 286.48 396.148 286.8C396.415 287.093 396.921 287.387 397.668 287.68L397.148 288.8ZM386.828 283.8C386.828 284.467 386.948 284.893 387.188 285.08C387.428 285.24 387.721 285.32 388.068 285.32C389.161 285.32 390.068 285.04 390.788 284.48C391.535 283.893 391.908 282.987 391.908 281.76C391.908 281.52 391.908 281.227 391.908 280.88C391.935 280.533 391.948 280.147 391.948 279.72C391.655 279.64 391.295 279.587 390.868 279.56C390.441 279.533 390.055 279.52 389.708 279.52C388.748 279.52 388.028 279.733 387.548 280.16C387.068 280.587 386.828 281.333 386.828 282.4V283.8ZM407.992 289.36C405.698 288.613 404.045 287.973 403.032 287.44C402.018 286.88 401.512 286.48 401.512 286.24C401.512 285.947 401.552 285.44 401.632 284.72C401.738 284 401.792 282.88 401.792 281.36V276.4C401.792 275.867 401.818 275.24 401.872 274.52C401.925 273.773 402.005 273.147 402.112 272.64H400.632L398.552 269.88L398.832 269.24H402.592C402.725 269.24 402.978 269.44 403.352 269.84C403.752 270.24 404.138 270.693 404.512 271.2C405.018 270.427 405.672 269.893 406.472 269.6C407.298 269.28 408.045 269.147 408.712 269.2L410.712 271.84L410.472 272.44C409.058 272.44 407.912 272.893 407.032 273.8C406.178 274.68 405.752 276.2 405.752 278.36V281.92C405.752 283.253 405.712 284.293 405.632 285.04C405.578 285.76 405.552 286.24 405.552 286.48C405.552 286.64 405.605 286.787 405.712 286.92C405.818 287.027 406.072 287.16 406.472 287.32C406.898 287.48 407.565 287.747 408.472 288.12L407.992 289.36ZM421.177 288.68C420.777 288.68 420.231 288.533 419.537 288.24C418.844 287.92 418.137 287.52 417.417 287.04C416.697 286.533 416.084 286.013 415.577 285.48C415.071 284.92 414.817 284.387 414.817 283.88C414.817 283.587 414.831 283.28 414.857 282.96C414.884 282.64 414.924 282.227 414.977 281.72C415.031 281.187 415.071 280.48 415.097 279.6C415.124 278.72 415.137 277.573 415.137 276.16C415.137 275.627 415.137 275.067 415.137 274.48C415.137 273.893 415.124 273.28 415.097 272.64H414.377L412.337 269.96L412.617 269.32C414.031 269.16 414.924 268.733 415.297 268.04C415.671 267.347 415.857 266.293 415.857 264.88L416.537 264.64L418.977 266.48C418.977 266.96 418.977 267.427 418.977 267.88C418.977 268.333 418.977 268.787 418.977 269.24H422.377L424.377 272.04L424.097 272.64H419.017C419.017 273.6 419.017 274.52 419.017 275.4C419.017 276.28 419.017 277.12 419.017 277.92C419.017 279.467 418.991 280.653 418.937 281.48C418.911 282.307 418.871 282.92 418.817 283.32C418.764 283.72 418.737 284.093 418.737 284.44C418.737 284.973 419.017 285.24 419.577 285.24C420.057 285.24 420.577 285.12 421.137 284.88C421.697 284.613 422.217 284.293 422.697 283.92H423.257L425.137 287.04C424.764 287.493 424.177 287.88 423.377 288.2C422.577 288.52 421.844 288.68 421.177 288.68ZM441.92 288.8C441.28 288.587 440.693 288.373 440.16 288.16C439.627 287.92 439.12 287.667 438.64 287.4C438.267 287.773 437.813 288.08 437.28 288.32C436.773 288.533 436.187 288.64 435.52 288.64C435.067 288.64 434.4 288.493 433.52 288.2C432.667 287.907 431.787 287.533 430.88 287.08C429.973 286.6 429.2 286.08 428.56 285.52C427.947 284.933 427.64 284.36 427.64 283.8C427.64 283.107 427.64 282.493 427.64 281.96C427.667 281.4 427.68 281.067 427.68 280.96C427.68 279.387 428.08 278.28 428.88 277.64C429.707 276.973 430.853 276.64 432.32 276.64C433.067 276.64 433.867 276.693 434.72 276.8C435.573 276.907 436.267 277.027 436.8 277.16C436.827 276.413 436.84 275.707 436.84 275.04C436.867 274.347 436.88 273.827 436.88 273.48C436.88 273.187 436.8 272.973 436.64 272.84C436.48 272.707 436.187 272.64 435.76 272.64C434.72 272.64 433.84 272.72 433.12 272.88C432.4 273.04 431.72 273.307 431.08 273.68H430.32L427.72 269.88L428.04 269.24H434.72C435.253 269.24 435.853 269.453 436.52 269.88C437.213 270.28 437.893 270.787 438.56 271.4C439.227 272.013 439.773 272.64 440.2 273.28C440.627 273.92 440.84 274.48 440.84 274.96C440.84 275.84 440.813 276.88 440.76 278.08C440.707 279.28 440.653 280.507 440.6 281.76C440.547 282.987 440.52 284.107 440.52 285.12C440.52 285.92 440.653 286.48 440.92 286.8C441.187 287.093 441.693 287.387 442.44 287.68L441.92 288.8ZM431.6 283.8C431.6 284.467 431.72 284.893 431.96 285.08C432.2 285.24 432.493 285.32 432.84 285.32C433.933 285.32 434.84 285.04 435.56 284.48C436.307 283.893 436.68 282.987 436.68 281.76C436.68 281.52 436.68 281.227 436.68 280.88C436.707 280.533 436.72 280.147 436.72 279.72C436.427 279.64 436.067 279.587 435.64 279.56C435.213 279.533 434.827 279.52 434.48 279.52C433.52 279.52 432.8 279.733 432.32 280.16C431.84 280.587 431.6 281.333 431.6 282.4V283.8ZM452.123 288.88C450.097 288.88 448.51 288.227 447.363 286.92C446.217 285.587 445.417 283.787 444.963 281.52L446.243 281.16C446.75 282.44 447.323 283.347 447.963 283.88C448.63 284.413 449.523 284.68 450.643 284.68C451.923 284.68 453.003 284.32 453.883 283.6C454.79 282.88 455.243 282 455.243 280.96C455.243 280.373 455.03 280.08 454.603 280.08C454.257 280.08 453.75 280.16 453.083 280.32C452.443 280.48 451.803 280.653 451.163 280.84C450.523 281 450.043 281.08 449.723 281.08C449.243 281.08 448.75 280.853 448.243 280.4C447.763 279.947 447.31 279.373 446.883 278.68C446.457 277.96 446.11 277.213 445.843 276.44C445.577 275.667 445.443 274.947 445.443 274.28C445.443 272.707 445.937 271.387 446.923 270.32C447.937 269.253 449.377 268.72 451.243 268.72C452.843 268.72 454.15 269.147 455.163 270C456.177 270.853 456.95 272.16 457.483 273.92L456.083 274.4C455.363 273.253 454.27 272.68 452.803 272.68C451.523 272.68 450.443 273.013 449.563 273.68C448.683 274.347 448.243 275.187 448.243 276.2C448.243 276.733 448.497 277 449.003 277C449.403 277 449.923 276.92 450.563 276.76C451.203 276.573 451.843 276.4 452.483 276.24C453.123 276.08 453.643 276 454.043 276C454.657 276 455.257 276.347 455.843 277.04C456.43 277.733 456.91 278.613 457.283 279.68C457.657 280.747 457.843 281.84 457.843 282.96C457.843 284.747 457.35 286.187 456.363 287.28C455.377 288.347 453.963 288.88 452.123 288.88Z" fill="white"/>
<defs>
<filter id="filter0_d_59_450" x="16.0085" y="58.019" width="663.089" height="164.781" filterUnits="userSpaceOnUse" color-interpolation-filters="sRGB">
<feFlood flood-opacity="0" result="BackgroundImageFix"/>
<feColorMatrix in="SourceAlpha" type="matrix" values="0 0 0 0 0 0 0 0 0 0 0 0 0 0 0 0 0 0 127 0" result="hardAlpha"/>
<feOffset dy="7"/>
<feComposite in2="hardAlpha" operator="out"/>
<feColorMatrix type="matrix" values="0 0 0 0 0.109804 0 0 0 0 0.129412 0 0 0 0 0.156863 0 0 0 1 0"/>
<feBlend mode="normal" in2="BackgroundImageFix" result="effect1_dropShadow_59_450"/>
<feBlend mode="normal" in="SourceGraphic" in2="effect1_dropShadow_59_450" result="shape"/>
</filter>
<linearGradient id="paint0_linear_59_450" x1="658.576" y1="86.2928" x2="48.4131" y2="285.217" gradientUnits="userSpaceOnUse">
<stop stop-color="#BEBEBE"/>
<stop offset="0.144231" stop-color="#999999"/>
<stop offset="0.220601" stop-color="#909090"/>
<stop offset="0.307692" stop-color="#6C6C6C"/>
<stop offset="0.495192" stop-color="#E6E6E6"/>
<stop offset="0.697115" stop-color="#999999"/>
<stop offset="1" stop-color="#D2D2D2"/>
</linearGradient>
<linearGradient id="paint1_linear_59_450" x1="344.5" y1="240" x2="344.5" y2="307" gradientUnits="userSpaceOnUse">
<stop stop-color="#F20004"/>
<stop offset="1" stop-color="#8C0002"/>
</linearGradient>
<linearGradient id="paint2_linear_59_450" x1="344.5" y1="307" x2="344.5" y2="240" gradientUnits="userSpaceOnUse">
<stop stop-color="#757575"/>
<stop offset="1" stop-color="#CACACA"/>
</linearGradient>
</defs>
</svg>
