<svg width="411" height="631" viewBox="0 0 411 631" fill="none" xmlns="http://www.w3.org/2000/svg">
<circle cx="222.5" cy="326.5" r="175.5" fill="white"/>
<g filter="url(#filter0_d_131_15)">
<mask id="path-2-outside-1_131_15" maskUnits="userSpaceOnUse" x="52" y="149" width="322" height="381" fill="black">
<rect fill="white" x="52" y="149" width="322" height="381"/>
<path d="M286.904 509.5L124.904 241.5H120.904L122.404 502L72.4043 504.5L85.9043 177L206.904 169.5L294.404 419H298.404L303.404 174.5L353.404 172L331.904 502L286.904 509.5Z"/>
</mask>
<path d="M286.904 509.5L124.904 241.5H120.904L122.404 502L72.4043 504.5L85.9043 177L206.904 169.5L294.404 419H298.404L303.404 174.5L353.404 172L331.904 502L286.904 509.5Z" fill="#1C2128"/>
<path d="M286.904 509.5L269.788 519.846L290.192 529.228L286.904 509.5ZM124.904 241.5L142.02 231.154L124.904 221.5V241.5ZM120.904 241.5V221.5L100.905 241.615L120.904 241.5ZM122.404 502L123.403 521.975L142.404 501.885L122.404 502ZM72.4043 504.5L52.4213 503.676L73.4031 524.475L72.4043 504.5ZM85.9043 177L84.667 157.038L65.9213 176.176L85.9043 177ZM206.904 169.5L225.777 162.881L205.667 149.538L206.904 169.5ZM294.404 419L275.531 425.619L294.404 439V419ZM298.404 419V439L318.4 419.409L298.404 419ZM303.404 174.5L302.406 154.525L283.409 174.091L303.404 174.5ZM353.404 172L373.362 173.3L352.406 152.025L353.404 172ZM331.904 502L335.192 521.728L351.862 503.3L331.904 502ZM286.904 509.5L304.02 499.154L142.02 231.154L124.904 241.5L107.788 251.846L269.788 519.846L286.904 509.5ZM124.904 241.5V221.5H120.904V241.5V261.5H124.904V241.5ZM120.904 241.5L100.905 241.615L102.405 502.115L122.404 502L142.404 501.885L140.904 241.385L120.904 241.5ZM122.404 502L121.406 482.025L71.4055 484.525L72.4043 504.5L73.4031 524.475L123.403 521.975L122.404 502ZM72.4043 504.5L92.3873 505.324L105.887 177.824L85.9043 177L65.9213 176.176L52.4213 503.676L72.4043 504.5ZM85.9043 177L87.1416 196.962L208.142 189.462L206.904 169.5L205.667 149.538L84.667 157.038L85.9043 177ZM206.904 169.5L188.031 176.119L275.531 425.619L294.404 419L313.277 412.381L225.777 162.881L206.904 169.5ZM294.404 419V439H298.404V419V399H294.404V419ZM298.404 419L318.4 419.409L323.4 174.909L303.404 174.5L283.409 174.091L278.408 418.591L298.404 419ZM303.404 174.5L304.403 194.475L354.403 191.975L353.404 172L352.406 152.025L302.406 154.525L303.404 174.5ZM353.404 172L333.447 170.7L311.947 500.7L331.904 502L351.862 503.3L373.362 173.3L353.404 172ZM331.904 502L328.616 482.272L283.616 489.772L286.904 509.5L290.192 529.228L335.192 521.728L331.904 502Z" fill="url(#paint0_linear_131_15)" mask="url(#path-2-outside-1_131_15)"/>
</g>
<defs>
<filter id="filter0_d_131_15" x="52.4214" y="149.538" width="320.941" height="386.69" filterUnits="userSpaceOnUse" color-interpolation-filters="sRGB">
<feFlood flood-opacity="0" result="BackgroundImageFix"/>
<feColorMatrix in="SourceAlpha" type="matrix" values="0 0 0 0 0 0 0 0 0 0 0 0 0 0 0 0 0 0 127 0" result="hardAlpha"/>
<feOffset dy="7"/>
<feComposite in2="hardAlpha" operator="out"/>
<feColorMatrix type="matrix" values="0 0 0 0 0.109804 0 0 0 0 0.129412 0 0 0 0 0.156863 0 0 0 1 0"/>
<feBlend mode="normal" in2="BackgroundImageFix" result="effect1_dropShadow_131_15"/>
<feBlend mode="normal" in="SourceGraphic" in2="effect1_dropShadow_131_15" result="shape"/>
</filter>
<linearGradient id="paint0_linear_131_15" x1="397.858" y1="203.935" x2="-13.275" y2="238.727" gradientUnits="userSpaceOnUse">
<stop stop-color="#BEBEBE"/>
<stop offset="0.144231" stop-color="#999999"/>
<stop offset="0.220601" stop-color="#909090"/>
<stop offset="0.307692" stop-color="#6C6C6C"/>
<stop offset="0.495192" stop-color="#E6E6E6"/>
<stop offset="0.697115" stop-color="#999999"/>
<stop offset="1" stop-color="#D2D2D2"/>
</linearGradient>
</defs>
</svg>
